<svg width="29" height="29" viewBox="0 0 29 29" fill="none" xmlns="http://www.w3.org/2000/svg">
<path d="M24.0156 9.51562H4.98438C4.21406 9.51562 3.625 8.92656 3.625 8.15625C3.625 7.38594 4.21406 6.79688 4.98438 6.79688H24.0156C24.7859 6.79688 25.375 7.38594 25.375 8.15625C25.375 8.92656 24.7859 9.51562 24.0156 9.51562Z" fill="white"/>
<path d="M24.0156 15.8594H4.98438C4.21406 15.8594 3.625 15.2703 3.625 14.5C3.625 13.7297 4.21406 13.1406 4.98438 13.1406H24.0156C24.7859 13.1406 25.375 13.7297 25.375 14.5C25.375 15.2703 24.7859 15.8594 24.0156 15.8594Z" fill="white"/>
<path d="M24.0156 22.2031H4.98438C4.21406 22.2031 3.625 21.6141 3.625 20.8438C3.625 20.0734 4.21406 19.4844 4.98438 19.4844H24.0156C24.7859 19.4844 25.375 20.0734 25.375 20.8438C25.375 21.6141 24.7859 22.2031 24.0156 22.2031Z" fill="white"/>
</svg>
