<svg width="24" height="16" viewBox="0 0 24 16" fill="none" xmlns="http://www.w3.org/2000/svg">
<g clip-path="url(#clip0_6210_2329)">
<path d="M20.7045 2.2219C18.1078 0.358614 15.6883 0.281152 15.226 0.271484L14.931 0.551504C18.2456 1.4784 19.8488 2.92672 19.8488 2.92672C17.0037 1.55264 14.3226 1.06941 11.9998 1.04035C9.67709 1.06965 6.9959 1.55264 4.15082 2.92672C4.15082 2.92672 5.75406 1.4784 9.06877 0.551504L8.77363 0.271484C8.31139 0.281152 5.89176 0.358379 3.29512 2.2219C3.29512 2.2219 0.393555 7.08822 0.393555 13.0649C0.491875 12.9491 2.1935 15.6332 6.58029 15.7298C6.58029 15.7298 7.31799 14.9091 7.84908 14.1849C5.29176 13.4608 4.32789 12.0125 4.32789 12.0125C6.98652 13.6565 9.46978 14.289 11.9998 14.2068C14.5298 14.2888 17.0131 13.6565 19.6717 12.0125C19.6717 12.0125 18.7079 13.4608 16.1502 14.1849C16.6814 14.9091 17.4191 15.7298 17.4191 15.7298C21.8058 15.6332 23.5074 12.9491 23.6058 13.0649C23.6061 7.08822 20.7045 2.2219 20.7045 2.2219ZM8.42916 11.1918C7.30785 11.1918 6.40299 10.2648 6.40299 9.12547C6.40299 7.98611 7.30785 7.05922 8.42916 7.05922V7.06889C9.54062 7.06889 10.4553 7.99584 10.4553 9.13514C10.4556 10.2648 9.55059 11.1918 8.42939 11.1918H8.42916ZM15.57 11.1918C14.4487 11.1918 13.5438 10.2648 13.5438 9.13514C13.5438 7.99584 14.4585 7.06889 15.57 7.06889V7.05922C16.6913 7.05922 17.5962 7.98617 17.5962 9.12547C17.5962 10.2648 16.6915 11.1918 15.5702 11.1918H15.57Z" fill="white"/>
</g>
<defs>
<clipPath id="clip0_6210_2329">
<rect width="24" height="16" fill="white"/>
</clipPath>
</defs>
</svg>
