<svg width="22" height="20" viewBox="0 0 22 20" fill="none" xmlns="http://www.w3.org/2000/svg">
<g clip-path="url(#clip0_6210_2321)">
<path d="M1.38709 11.0879L1.46042 10.9692L5.8828 3.84749C5.94743 3.74319 6.09937 3.75401 6.1483 3.86725C6.88708 5.57175 7.52462 7.69154 7.22595 9.01124C7.09845 9.55421 6.74911 10.2896 6.35611 10.9692C6.30549 11.0681 6.24958 11.1652 6.19019 11.2587C6.16227 11.3018 6.11509 11.327 6.06443 11.327H1.51633C1.39404 11.327 1.32245 11.1904 1.38709 11.0879Z" fill="white"/>
<path d="M21.0992 12.4114V13.5387C21.0992 13.6034 21.0608 13.6609 21.0049 13.6861C20.6626 13.8371 19.4906 14.3909 19.0033 15.0885C17.7598 16.8703 16.8096 19.418 14.6858 19.418H5.82528C2.68492 19.418 0.140137 16.7894 0.140137 13.5459V13.4416C0.140137 13.3553 0.20825 13.2851 0.292079 13.2851H5.23145C5.32925 13.2851 5.40088 13.3786 5.39215 13.4775C5.35721 13.8084 5.4166 14.1464 5.56854 14.4538C5.86196 15.0669 6.4698 15.4499 7.12649 15.4499H9.57174V13.4847H7.15445C7.03043 13.4847 6.9571 13.3373 7.02869 13.233C7.0549 13.1917 7.0846 13.1485 7.11603 13.1C7.34481 12.7655 7.67144 12.2459 7.99629 11.6544C8.21812 11.2553 8.43296 10.8291 8.60587 10.4012C8.64082 10.3239 8.66873 10.2448 8.69669 10.1675C8.74384 10.0308 8.79276 9.90317 8.82767 9.77554C8.86261 9.66766 8.89057 9.55438 8.91852 9.44829C9.00061 9.0851 9.03552 8.70034 9.03552 8.30118C9.03552 8.14477 9.02853 7.98117 9.01455 7.82472C9.0076 7.65392 8.98663 7.48312 8.96567 7.31232C8.95169 7.16127 8.92551 7.01205 8.89755 6.85564C8.86261 6.62729 8.81372 6.40076 8.75781 6.1724L8.73862 6.08611C8.69669 5.9297 8.66175 5.78044 8.61286 5.62403C8.47486 5.13318 8.31593 4.65492 8.14827 4.20723C8.08715 4.02924 8.01726 3.85844 7.9474 3.68764C7.84435 3.43051 7.73955 3.19678 7.64348 2.97562C7.5946 2.87494 7.55267 2.78324 7.51077 2.68975C7.46359 2.58366 7.4147 2.47761 7.36578 2.37689C7.33087 2.29958 7.29068 2.22767 7.26272 2.15577L6.96409 1.5876C6.92215 1.51029 6.99201 1.41859 7.0741 1.44196L8.94296 1.96338H8.94821C8.95169 1.96338 8.95343 1.96517 8.9552 1.96517L9.20144 2.03529L9.47219 2.11439L9.57174 2.14317V0.999678C9.57174 0.447689 10.0014 0 10.5323 0C10.7979 0 11.0389 0.111455 11.2118 0.293066C11.3847 0.474677 11.493 0.722789 11.493 0.999678V2.69694L11.6921 2.75446C11.7078 2.75987 11.7235 2.76706 11.7375 2.77783C11.7864 2.81559 11.8563 2.87136 11.9454 2.93965C12.0152 2.99721 12.0903 3.06732 12.1812 3.13923C12.3611 3.28848 12.5759 3.48087 12.8117 3.70199C12.8745 3.75776 12.9357 3.81527 12.9916 3.87283C13.2955 4.16407 13.6361 4.5057 13.9609 4.88328C14.0517 4.98933 14.1408 5.09721 14.2316 5.21049C14.3225 5.32556 14.4185 5.43884 14.5024 5.55213C14.6124 5.70313 14.7312 5.85954 14.8342 6.02319C14.8831 6.1005 14.939 6.1796 14.9862 6.25691C15.1189 6.46368 15.2359 6.67765 15.3477 6.89158C15.3949 6.99047 15.4438 7.09835 15.4857 7.20444C15.6097 7.49031 15.7075 7.78159 15.7704 8.07287C15.7896 8.13579 15.8036 8.20412 15.8105 8.26525V8.2796C15.8315 8.36593 15.8385 8.45763 15.8455 8.55112C15.8734 8.84956 15.8595 9.14803 15.7966 9.44829C15.7704 9.57596 15.7354 9.6964 15.6935 9.82407C15.6516 9.94634 15.6097 10.074 15.5555 10.1944C15.4508 10.4443 15.3268 10.6943 15.18 10.928C15.1329 11.0143 15.077 11.106 15.0211 11.1923C14.96 11.284 14.8971 11.3703 14.8412 11.4548C14.7644 11.5627 14.6823 11.676 14.5984 11.7766C14.5233 11.8827 14.4465 11.9888 14.3626 12.0823C14.2456 12.2243 14.1338 12.3592 14.0168 12.4887C13.9469 12.5732 13.8718 12.6595 13.795 12.7368C13.7199 12.8231 13.643 12.9004 13.5732 12.9723C13.4562 13.0928 13.3584 13.1862 13.2763 13.2636L13.0841 13.4452C13.0562 13.4703 13.0195 13.4847 12.9811 13.4847H11.493V15.4499H13.3653C13.7845 15.4499 14.1827 15.2971 14.5041 15.0166C14.6141 14.9177 15.0945 14.4898 15.6621 13.8443C15.6813 13.8227 15.7058 13.8066 15.7337 13.7994L20.9054 12.2603C21.0014 12.2315 21.0992 12.307 21.0992 12.4114Z" fill="white"/>
</g>
<defs>
<clipPath id="clip0_6210_2321">
<rect width="22" height="20" fill="white"/>
</clipPath>
</defs>
</svg>
