<svg width="23" height="21" viewBox="0 0 23 21" fill="none" xmlns="http://www.w3.org/2000/svg">
<path d="M22.8702 3.30392C22.0149 3.68508 21.1103 3.93829 20.1842 4.05574C21.1604 3.46497 21.8902 2.52904 22.235 1.42554C21.3213 1.979 20.3214 2.36879 19.2788 2.57802C18.6399 1.88076 17.8102 1.39583 16.8975 1.1863C15.9849 0.976768 15.0316 1.05234 14.1616 1.40318C13.2916 1.75403 12.5452 2.3639 12.0195 3.15349C11.4938 3.94307 11.213 4.87582 11.2138 5.83042C11.2106 6.19479 11.247 6.5584 11.3224 6.91455C9.46775 6.82159 7.6532 6.33042 5.99724 5.47312C4.34129 4.61581 2.88119 3.41167 1.71232 1.93933C1.11152 2.98671 0.925379 4.22871 1.19196 5.41147C1.45854 6.59422 2.15771 7.62843 3.14656 8.30272C2.40848 8.28241 1.68603 8.08113 1.04024 7.71587V7.76772C1.04232 8.86559 1.41471 9.92925 2.09481 10.7799C2.77492 11.6306 3.72127 12.2164 4.7748 12.4389C4.3761 12.5458 3.96525 12.5981 3.55304 12.5945C3.25623 12.6001 2.95969 12.5732 2.66848 12.5143C2.97031 13.4585 3.5514 14.2841 4.33183 14.8775C5.11226 15.4709 6.05368 15.8029 7.02662 15.828C5.37788 17.1431 3.34535 17.8574 1.25272 17.8572C0.879862 17.8605 0.507203 17.8384 0.137207 17.7912C2.27094 19.1951 4.75808 19.9369 7.29683 19.9265C15.8768 19.9265 20.5675 12.6746 20.5675 6.38899C20.5675 6.17923 20.5675 5.97654 20.5514 5.77386C21.4649 5.10108 22.2507 4.2641 22.8702 3.30392Z" fill="white"/>
</svg>
