<svg width="488" height="291" viewBox="0 0 488 291" fill="none" xmlns="http://www.w3.org/2000/svg">
<path d="M414.861 45.1355L435.944 24.2415L455.535 24.2415L434.472 45.1355L414.861 45.1355Z" fill="#F1C357"/>
<path d="M384.848 45.1355L405.937 24.2415L425.522 24.2415L404.459 45.1355L384.848 45.1355Z" fill="#F1C357"/>
<path d="M354.842 45.1355L375.924 24.2415L395.515 24.2415L374.445 45.1355L354.842 45.1355Z" fill="#F1C357"/>
<path d="M478.65 12.636L479.317 13.297L439.561 52.7221L320.544 52.7221L320.544 51.786L439.172 51.786L478.65 12.636Z" fill="#F1C357"/>
<path d="M478.512 7L485 7L485 13.4345L478.512 13.4345L478.512 7ZM484.056 7.93608L479.456 7.93608L479.456 12.4984L484.056 12.4984L484.056 7.93608Z" fill="#F1C357"/>
<path d="M315 55L320.544 55L320.544 49.5015L315 49.5015L315 55Z" fill="#F1C357"/>
<path d="M485.419 46.5452V246.519L453.425 278.513H163.517C163.272 273.204 158.889 268.969 153.518 268.969C148.144 268.969 143.76 273.204 143.516 278.513H51.4136L12.3555 239.455V50.3437L50.7393 11.96L451.601 12.7272L485.419 46.5452Z" stroke="#F1C357" stroke-width="3.2362" stroke-miterlimit="10"/>
<path d="M163.53 278.984C163.53 284.517 159.047 289 153.518 289C147.985 289 143.502 284.517 143.502 278.984C143.502 278.826 143.505 278.668 143.516 278.513C143.76 273.204 148.143 268.969 153.518 268.969C158.888 268.969 163.272 273.204 163.516 278.513C163.526 278.668 163.53 278.826 163.53 278.984Z" stroke="#F1C357" stroke-width="3.2362" stroke-miterlimit="10"/>
<path d="M51.6164 281.795C53.5565 281.795 55.1293 280.223 55.1293 278.282C55.1293 276.342 53.5565 274.77 51.6164 274.77C49.6763 274.77 48.1035 276.342 48.1035 278.282C48.1035 280.223 49.6763 281.795 51.6164 281.795Z" fill="#F1C357"/>
<path opacity="0.4" d="M4.35547 196.76V42.5916L42.8631 4.08398H228.1" stroke="#F1C357" stroke-width="3.2362" stroke-miterlimit="10"/>
<path d="M443.939 268.973H213.87" stroke="#F1C357" stroke-width="3.2362" stroke-miterlimit="10"/>
<path d="M55.1293 20.1895L45.2925 30.0296" stroke="#F1C357" stroke-width="3.2362" stroke-miterlimit="10"/>
<path d="M64.9696 20.1895L55.1294 30.0296" stroke="#F1C357" stroke-width="3.2362" stroke-miterlimit="10"/>
<path d="M74.81 20.1895L64.9697 30.0296" stroke="#F1C357" stroke-width="3.2362" stroke-miterlimit="10"/>
<path d="M84.6464 20.1895L74.8096 30.0296" stroke="#F1C357" stroke-width="3.2362" stroke-miterlimit="10"/>
<path d="M94.4867 20.1895L84.6465 30.0296" stroke="#F1C357" stroke-width="3.2362" stroke-miterlimit="10"/>
<path d="M104.324 20.1895L94.4868 30.0296" stroke="#F1C357" stroke-width="3.2362" stroke-miterlimit="10"/>
<path d="M114.163 20.1895L104.323 30.0296" stroke="#F1C357" stroke-width="3.2362" stroke-miterlimit="10"/>
<path d="M124.001 20.1895L114.164 30.0296" stroke="#F1C357" stroke-width="3.2362" stroke-miterlimit="10"/>
<path d="M133.841 20.1895L124 30.0296" stroke="#F1C357" stroke-width="3.2362" stroke-miterlimit="10"/>
<path d="M143.681 20.1895L133.841 30.0296" stroke="#F1C357" stroke-width="3.2362" stroke-miterlimit="10"/>
<path d="M153.518 20.1895L143.681 30.0296" stroke="#F1C357" stroke-width="3.2362" stroke-miterlimit="10"/>
<path d="M163.358 20.1895L153.518 30.0296" stroke="#F1C357" stroke-width="3.2362" stroke-miterlimit="10"/>
<path d="M173.195 20.1895L163.358 30.0296" stroke="#F1C357" stroke-width="3.2362" stroke-miterlimit="10"/>
<path d="M183.035 20.1895L173.195 30.0296" stroke="#F1C357" stroke-width="3.2362" stroke-miterlimit="10"/>
<path d="M192.872 20.1895L183.035 30.0296" stroke="#F1C357" stroke-width="3.2362" stroke-miterlimit="10"/>
<path d="M202.712 20.1895L192.872 30.0296" stroke="#F1C357" stroke-width="3.2362" stroke-miterlimit="10"/>
<path d="M212.552 20.1895L202.712 30.0296" stroke="#F1C357" stroke-width="3.2362" stroke-miterlimit="10"/>
<path d="M222.389 20.1895L212.552 30.0296" stroke="#F1C357" stroke-width="3.2362" stroke-miterlimit="10"/>
<path d="M232.229 20.1895L222.389 30.0296" stroke="#F1C357" stroke-width="3.2362" stroke-miterlimit="10"/>
<path d="M242.066 20.1895L232.229 30.0296" stroke="#F1C357" stroke-width="3.2362" stroke-miterlimit="10"/>
<path d="M251.907 20.1895L242.066 30.0296" stroke="#F1C357" stroke-width="3.2362" stroke-miterlimit="10"/>
<path d="M261.743 20.1895L251.906 30.0296" stroke="#F1C357" stroke-width="3.2362" stroke-miterlimit="10"/>
<path d="M271.583 20.1895L261.743 30.0296" stroke="#F1C357" stroke-width="3.2362" stroke-miterlimit="10"/>
<path d="M281.423 20.1895L271.583 30.0296" stroke="#F1C357" stroke-width="3.2362" stroke-miterlimit="10"/>
<path d="M291.261 20.1895L281.424 30.0296" stroke="#F1C357" stroke-width="3.2362" stroke-miterlimit="10"/>
<path d="M4.08404 201.504C6.33959 201.504 8.16807 199.675 8.16807 197.42C8.16807 195.164 6.33959 193.336 4.08404 193.336C1.82848 193.336 0 195.164 0 197.42C0 199.675 1.82848 201.504 4.08404 201.504Z" fill="#F1C357"/>
<path d="M43.3516 8.16807C45.6072 8.16807 47.4357 6.33959 47.4357 4.08404C47.4357 1.82848 45.6072 0 43.3516 0C41.0961 0 39.2676 1.82848 39.2676 4.08404C39.2676 6.33959 41.0961 8.16807 43.3516 8.16807Z" fill="#F1C357"/>
<path d="M227.31 8.16807C229.565 8.16807 231.394 6.33959 231.394 4.08404C231.394 1.82848 229.565 0 227.31 0C225.054 0 223.226 1.82848 223.226 4.08404C223.226 6.33959 225.054 8.16807 227.31 8.16807Z" fill="#F1C357"/>
</svg>
