<svg width="1440" height="58" viewBox="0 0 1440 58" fill="none" xmlns="http://www.w3.org/2000/svg">
<path d="M572.877 47.7899H724V43.4971H642.165L637.445 38.7749H582.56L573.805 30.0151H561.164L531.165 0H405.032L357 48.0451H363.065L406.794 4.29293H479.306L486.867 11.8693H430.822L422.832 19.8631H401.727L383.88 37.7191H385.504L402.214 21.0234H423.319L431.309 13.0179H488.027L500.435 25.4323H538.621L571.172 58H647.882V56.8398H571.648L539.097 24.2837H500.91L480.941 4.29293H529.391L572.877 47.7899Z" fill="#F2C457"/>
<path d="M205.877 47.7899H357V43.4971H275.165L270.445 38.7749H215.56L206.805 30.0151H194.164L164.165 0H38.0318L-10 48.0451H-3.93515L39.7945 4.29293H112.306L119.867 11.8693H63.822L55.832 19.8631H34.7268L16.8802 37.7191H18.5035L35.214 21.0234H56.3192L64.309 13.0179H121.027L133.435 25.4323H171.621L204.172 58H280.882V56.8398H204.648L172.097 24.2837H133.91L113.941 4.29293H162.391L205.877 47.7899Z" fill="#F2C457"/>
<path d="M1299.88 47.7899H1451V43.4971H1369.16L1364.44 38.7749H1309.56L1300.8 30.0151H1288.16L1258.16 0H1132.03L1084 48.0451H1090.06L1133.79 4.29293H1206.31L1213.87 11.8693H1157.82L1149.83 19.8631H1128.73L1110.88 37.7191H1112.5L1129.21 21.0234H1150.32L1158.31 13.0179H1215.03L1227.43 25.4323H1265.62L1298.17 58H1374.88V56.8398H1298.65L1266.1 24.2837H1227.91L1207.94 4.29293H1256.39L1299.88 47.7899Z" fill="#F2C457"/>
<path d="M933.877 47.7899H1085V43.4971H1003.16L998.445 38.7749H943.56L934.805 30.0151H922.164L892.165 0H766.032L718 48.0451H724.065L767.794 4.29293H840.306L847.867 11.8693H791.822L783.832 19.8631H762.727L744.88 37.7191H746.504L763.214 21.0234H784.319L792.309 13.0179H849.027L861.435 25.4323H899.621L932.172 58H1008.88V56.8398H932.648L900.097 24.2837H861.91L841.941 4.29293H890.391L933.877 47.7899Z" fill="#F2C457"/>
</svg>
