<svg width="336" height="595" viewBox="0 0 336 595" fill="none" xmlns="http://www.w3.org/2000/svg">
<path d="M330.025 417.184L330.025 146.001L293.191 109.167L181.132 109.167L170.984 99.0196L25.4905 99.0196L2.00002 122.51L2 589.579H183.075M218.96 577.097H310.183L322.65 564.63V470.792M292.933 101.902L283.662 92.627M283.662 101.902L274.391 92.627M274.391 101.902L265.115 92.627M265.115 101.902L255.845 92.627M255.845 101.902L246.57 92.627M246.57 101.902L237.299 92.627M237.299 101.902L228.024 92.627M228.024 101.902L218.753 92.627M218.753 101.902L209.482 92.627M209.482 101.902L200.207 92.627M200.207 101.902L190.936 92.627M190.936 101.902L181.661 92.627M330.207 421.646C328.236 421.646 326.638 420.048 326.638 418.077C326.638 416.106 328.236 414.508 330.207 414.508C332.178 414.508 333.776 416.106 333.776 418.077C333.776 420.048 332.178 421.646 330.207 421.646ZM184.696 593.202C182.725 593.202 181.128 591.605 181.128 589.634C181.128 587.663 182.725 586.065 184.696 586.065C186.667 586.065 188.265 587.663 188.265 589.634C188.265 591.605 186.667 593.202 184.696 593.202ZM333.771 436.206L322.625 447.353V564.61L310.137 577.098H205.99L201.346 581.742V593.197H320.559L334 579.752L333.771 436.206Z" stroke="#F1C357" stroke-width="3.2362" stroke-miterlimit="10"/>
</svg>
