<svg width="609" height="343" viewBox="0 0 609 343" fill="none" xmlns="http://www.w3.org/2000/svg">
<path d="M326.537 10.7422H67.2974L21.2852 56.6999V277.542L84.3731 340.555H182.732L199.604 323.708H607" stroke="#F1C357" stroke-width="3.2362" stroke-miterlimit="10"/>
<path opacity="0.29" d="M71.2101 22.5215L31.5923 62.0924V246.276" stroke="#F1C357" stroke-width="3.2362" stroke-miterlimit="10"/>
<path d="M11.2127 60.4082V122.945L2 132.143V254.525" stroke="#F1C357" stroke-width="3.2362" stroke-miterlimit="10"/>
<path opacity="0.29" d="M11.2129 134.395V211.534" stroke="#F1C357" stroke-width="3.2362" stroke-miterlimit="10"/>
<path d="M20.3232 10.7422V38.8024L48.0761 11.0824L20.3232 10.7422Z" fill="#F1C357"/>
<path d="M314.234 2H375.121L383.738 10.6064H573.385L607 44.1817V141.727" stroke="#F1C357" stroke-width="3.2362" stroke-miterlimit="10"/>
<path d="M607 152.473V337.145H215.994" stroke="#F1C357" stroke-width="3.2362" stroke-miterlimit="10"/>
<path opacity="0.29" d="M281.862 22.5215H563.602L595.395 54.2769V225.432" stroke="#F1C357" stroke-width="3.2362" stroke-miterlimit="10"/>
<path d="M20.3232 291.652V340.999H69.6901L20.3232 291.652Z" fill="#F1C357"/>
</svg>
