<svg width="218" height="471" viewBox="0 0 218 471" fill="none" xmlns="http://www.w3.org/2000/svg">
<g clip-path="url(#clip0_480_704)">
<path d="M309.66 249.964L309.66 250.848L157.523 250.848L114.911 298.182L82.7361 297.837L67.1489 321.674L35.4552 321.674L27.8332 332.471L9.82129 332.471L9.82129 331.588L27.3748 331.588L34.9956 320.79L66.6694 320.79L82.2604 296.949L114.52 297.295L157.128 249.964L309.66 249.964Z" fill="#21232A" stroke="#21232A" stroke-width="4" stroke-miterlimit="10"/>
<path d="M309.709 297.167L309.709 298.049L273.494 298.049L265.526 304.614L241.767 304.614L236.629 298.049L183.62 298.049L150.104 331.477L150.104 377.739L169.677 395.359L169.677 425.968L156.383 439.227L155.757 438.603L168.791 425.604L168.791 395.752L149.218 378.131L149.218 331.111L183.254 297.167L237.06 297.167L242.199 303.732L265.208 303.732L273.176 297.167L309.709 297.167Z" fill="#21232A" stroke="#21232A" stroke-width="4" stroke-miterlimit="10"/>
<path d="M309.66 275.531L309.66 276.415L161.983 276.415L149.99 289.742L118.926 323.822L118.926 365.964L135.207 382.201L135.207 411.956L118.821 431.313L118.145 430.743L134.322 411.634L134.322 382.567L118.04 366.33L118.04 323.481L118.155 323.354L149.334 289.15L161.588 275.531L309.66 275.531Z" fill="#21232A" stroke="#21232A" stroke-width="4" stroke-miterlimit="10"/>
<path d="M309.709 308.051L309.709 308.934L186.228 308.934L167.054 329.396L167.054 374.619L183.013 387.748L183.013 435.113L199.175 452.261L198.531 452.865L182.129 435.464L182.129 388.164L166.168 375.036L166.168 329.047L185.843 308.051L309.709 308.051Z" fill="#21232A" stroke="#21232A" stroke-width="4" stroke-miterlimit="10"/>
<path d="M309.66 285.894L309.66 286.778L271.585 286.778L264.654 292.307L240.947 292.132L234.887 286.778L171.336 286.778L128.972 333.493L128.972 360.437L142.482 374.171L142.482 431.789L141.596 431.789L141.596 374.53L128.087 360.798L128.087 333.153L170.942 285.894L235.223 285.894L241.286 291.251L264.347 291.421L271.274 285.894L309.66 285.894Z" fill="#21232A" stroke="#21232A" stroke-width="4" stroke-miterlimit="10"/>
<path d="M309.709 317.852L309.709 318.736L235.21 318.736L229.841 323.054L193.516 323.054L182.668 335.902L182.668 356.979L194.792 369.071L194.792 416.02L210.035 427.422L210.035 463.574L209.15 463.574L209.15 427.863L193.907 416.462L193.907 369.437L181.782 357.345L181.782 335.58L193.105 322.171L229.529 322.171L234.898 317.852L309.709 317.852Z" fill="#21232A" stroke="#21232A" stroke-width="4" stroke-miterlimit="10"/>
<path d="M309.66 240.378L309.66 241.261L152.673 241.232L111.055 286.261L79.2225 286.261L68.829 301.205L32.1002 301.205L22.0535 284.275L9.50293 284.275L9.50293 283.392L22.559 283.392L32.6057 300.322L68.3656 300.322L78.7592 285.378L110.667 285.378L152.284 240.349L152.478 240.349L309.66 240.378Z" fill="#21232A" stroke="#21232A" stroke-width="4" stroke-miterlimit="10"/>
<path d="M9.82157 332.03C9.82157 330.153 8.29615 328.632 6.41444 328.632C4.53274 328.632 3.00732 330.153 3.00732 332.03C3.00732 333.906 4.53274 335.428 6.41444 335.428C8.29615 335.428 9.82157 333.906 9.82157 332.03Z" fill="#21232A" stroke="#21232A" stroke-width="4" stroke-miterlimit="10"/>
<path d="M10.2638 332.03C10.2638 334.147 8.5367 335.869 6.41437 335.869C4.29204 335.869 2.56494 334.147 2.56494 332.03C2.56494 329.913 4.29204 328.191 6.41437 328.191C8.5367 328.191 10.2638 329.913 10.2638 332.03ZM3.45079 332.03C3.45079 333.66 4.78019 334.986 6.41437 334.986C8.04855 334.986 9.37794 333.66 9.37794 332.03C9.37794 330.4 8.04855 329.074 6.41437 329.074C4.78019 329.074 3.45079 330.4 3.45079 332.03Z" fill="#21232A" stroke="#21232A" stroke-width="4" stroke-miterlimit="10"/>
<path d="M119.03 427.672C117.172 427.371 115.422 428.628 115.121 430.48C114.82 432.332 116.081 434.077 117.939 434.378C119.796 434.678 121.546 433.421 121.847 431.569C122.149 429.717 120.887 427.972 119.03 427.672Z" fill="#21232A" stroke="#21232A" stroke-width="4" stroke-miterlimit="10"/>
<path d="M122.332 431.026C122.332 433.143 120.605 434.865 118.483 434.865C116.36 434.865 114.633 433.143 114.633 431.026C114.633 428.91 116.36 427.187 118.483 427.187C120.606 427.187 122.332 428.91 122.332 431.026ZM115.519 431.026C115.519 432.656 116.849 433.982 118.483 433.982C120.117 433.982 121.446 432.656 121.446 431.026C121.446 429.396 120.117 428.071 118.483 428.071C116.849 428.071 115.519 429.396 115.519 431.026Z" fill="#21232A" stroke="#21232A" stroke-width="4" stroke-miterlimit="10"/>
<path d="M145.158 435.186C145.158 433.309 143.633 431.788 141.751 431.788C139.87 431.788 138.344 433.309 138.344 435.186C138.344 437.063 139.87 438.584 141.751 438.584C143.633 438.584 145.158 437.063 145.158 435.186Z" fill="#21232A" stroke="#21232A" stroke-width="4" stroke-miterlimit="10"/>
<path d="M145.601 435.186C145.601 437.303 143.874 439.025 141.751 439.025C139.629 439.025 137.902 437.303 137.902 435.186C137.902 433.07 139.629 431.347 141.751 431.347C143.874 431.347 145.601 433.07 145.601 435.186ZM138.788 435.186C138.788 436.816 140.117 438.142 141.751 438.142C143.385 438.142 144.715 436.816 144.715 435.186C144.715 433.557 143.385 432.231 141.751 432.231C140.117 432.231 138.788 433.557 138.788 435.186Z" fill="#21232A" stroke="#21232A" stroke-width="4" stroke-miterlimit="10"/>
<path d="M159.035 437.28C158.315 435.547 156.322 434.724 154.583 435.443C152.845 436.161 152.019 438.148 152.739 439.881C153.459 441.614 155.452 442.437 157.19 441.719C158.929 441.001 159.755 439.014 159.035 437.28Z" fill="#21232A" stroke="#21232A" stroke-width="4" stroke-miterlimit="10"/>
<path d="M159.734 438.585C159.734 440.701 158.006 442.424 155.884 442.424C153.762 442.424 152.035 440.701 152.035 438.585C152.035 436.468 153.762 434.746 155.884 434.746C158.008 434.746 159.734 436.468 159.734 438.585ZM152.921 438.585C152.921 440.215 154.25 441.54 155.884 441.54C157.518 441.54 158.848 440.215 158.848 438.585C158.848 436.955 157.518 435.629 155.884 435.629C154.251 435.628 152.921 436.955 152.921 438.585Z" fill="#21232A" stroke="#21232A" stroke-width="4" stroke-miterlimit="10"/>
<path d="M197.081 446.631C195.223 446.33 193.473 447.587 193.172 449.439C192.87 451.291 194.132 453.036 195.989 453.337C197.847 453.637 199.597 452.38 199.898 450.528C200.2 448.676 198.938 446.931 197.081 446.631Z" fill="#21232A" stroke="#21232A" stroke-width="4" stroke-miterlimit="10"/>
<path d="M200.381 449.987C200.381 452.104 198.654 453.826 196.532 453.826C194.409 453.826 192.682 452.104 192.682 449.987C192.682 447.87 194.409 446.148 196.532 446.148C198.654 446.148 200.381 447.87 200.381 449.987ZM193.568 449.987C193.568 451.617 194.897 452.943 196.532 452.943C198.166 452.943 199.495 451.617 199.495 449.987C199.495 448.357 198.166 447.031 196.532 447.031C194.897 447.031 193.568 448.357 193.568 449.987Z" fill="#21232A" stroke="#21232A" stroke-width="4" stroke-miterlimit="10"/>
<path d="M209.783 461.558C207.926 461.258 206.176 462.515 205.874 464.367C205.573 466.219 206.835 467.964 208.692 468.264C210.549 468.565 212.299 467.307 212.601 465.456C212.902 463.604 211.641 461.859 209.783 461.558Z" fill="#21232A" stroke="#21232A" stroke-width="4" stroke-miterlimit="10"/>
<path d="M213.083 464.913C213.083 467.029 211.356 468.752 209.234 468.752C207.111 468.752 205.384 467.029 205.384 464.913C205.384 462.796 207.111 461.074 209.234 461.074C211.356 461.074 213.083 462.796 213.083 464.913ZM206.27 464.913C206.27 466.543 207.6 467.868 209.234 467.868C210.868 467.868 212.197 466.543 212.197 464.913C212.197 463.283 210.868 461.957 209.234 461.957C207.6 461.957 206.27 463.283 206.27 464.913Z" fill="#21232A" stroke="#21232A" stroke-width="4" stroke-miterlimit="10"/>
<path d="M224.431 455.541C224.431 453.665 222.906 452.144 221.024 452.144C219.143 452.144 217.617 453.665 217.617 455.541C217.617 457.418 219.143 458.939 221.024 458.939C222.906 458.939 224.431 457.418 224.431 455.541Z" fill="#21232A" stroke="#21232A" stroke-width="4" stroke-miterlimit="10"/>
<path d="M224.874 455.542C224.874 457.658 223.147 459.381 221.024 459.381C218.902 459.381 217.175 457.658 217.175 455.542C217.175 453.425 218.902 451.703 221.024 451.703C223.147 451.703 224.874 453.425 224.874 455.542ZM218.061 455.542C218.061 457.172 219.39 458.497 221.024 458.497C222.658 458.497 223.988 457.172 223.988 455.542C223.988 453.912 222.658 452.586 221.024 452.586C219.39 452.586 218.061 453.912 218.061 455.542Z" fill="#21232A" stroke="#21232A" stroke-width="4" stroke-miterlimit="10"/>
<path d="M9.94641 283.833C9.94641 285.949 8.21931 287.672 6.09699 287.672C3.97466 287.672 2.24756 285.949 2.24756 283.833C2.24756 281.716 3.97466 279.994 6.09699 279.994C8.21931 279.994 9.94641 281.716 9.94641 283.833ZM3.13341 283.833C3.13341 285.463 4.46281 286.788 6.09699 286.788C7.73116 286.788 9.06056 285.463 9.06056 283.833C9.06056 282.203 7.73116 280.877 6.09699 280.877C4.46281 280.877 3.13341 282.203 3.13341 283.833Z" fill="#21232A" stroke="#21232A" stroke-width="4" stroke-miterlimit="10"/>
<path d="M309.752 262.963L309.752 263.846L253 263.846L246.07 267.301L245.964 267.301L210.67 267.128L205.693 263.846L159.939 263.846L118.678 309.857L96.4203 309.54L80.7017 339.468L80.0067 378.936L61.1635 396.568L60.5576 395.925L79.1283 378.548L79.8196 339.244L79.8692 339.151L95.8888 308.65L118.288 308.969L159.543 262.963L205.96 262.963L210.939 266.246L245.864 266.418L252.791 262.963L309.752 262.963Z" fill="#21232A" stroke="#21232A" stroke-width="4" stroke-miterlimit="10"/>
<path d="M64.427 396.247C64.427 394.37 62.9016 392.849 61.0199 392.849C59.1382 392.849 57.6128 394.37 57.6128 396.247C57.6128 398.123 59.1382 399.645 61.0199 399.645C62.9016 399.645 64.427 398.123 64.427 396.247Z" fill="#21232A" stroke="#21232A" stroke-width="4" stroke-miterlimit="10"/>
<path d="M64.8693 396.247C64.8693 398.363 63.1422 400.086 61.0198 400.086C58.8975 400.086 57.1704 398.363 57.1704 396.247C57.1704 394.13 58.8975 392.408 61.0198 392.408C63.1422 392.408 64.8693 394.13 64.8693 396.247ZM58.0563 396.247C58.0563 397.877 59.3857 399.202 61.0198 399.202C62.654 399.202 63.9834 397.877 63.9834 396.247C63.9834 394.617 62.654 393.291 61.0198 393.291C59.3857 393.291 58.0563 394.617 58.0563 396.247Z" fill="#21232A" stroke="#21232A" stroke-width="4" stroke-miterlimit="10"/>
<path d="M309.66 220.152L309.66 221.035L157.128 221.035L156.997 220.888L114.52 173.705L82.2604 174.051L66.6694 150.209L34.9956 150.209L27.3748 139.412L9.82129 139.412L9.82129 138.529L27.8332 138.529L35.4552 149.326L67.1489 149.326L82.7361 173.162L114.911 172.817L115.046 172.966L157.523 220.152L309.66 220.152Z" fill="#21232A" stroke="#21232A" stroke-width="4" stroke-miterlimit="10"/>
<path d="M309.709 172.95L309.709 173.832L273.176 173.832L265.208 167.268L242.199 167.268L237.06 173.832L183.254 173.832L149.218 139.888L149.218 92.8678L168.791 75.2479L168.791 45.3964L155.757 32.3965L156.383 31.7725L169.677 45.0307L169.677 75.6395L150.104 93.2608L150.104 139.522L183.62 172.95L236.629 172.95L241.767 166.385L265.526 166.385L273.494 172.95L309.709 172.95Z" fill="#21232A" stroke="#21232A" stroke-width="4" stroke-miterlimit="10"/>
<path d="M309.66 194.587L309.66 195.469L161.588 195.469L149.331 181.848L118.04 147.52L118.04 104.671L134.322 88.4329L134.322 59.3661L118.145 40.2572L118.821 39.6876L135.207 59.0436L135.207 88.7987L118.926 105.037L118.926 147.179L149.989 181.257L161.983 194.586L309.66 194.587Z" fill="#21232A" stroke="#21232A" stroke-width="4" stroke-miterlimit="10"/>
<path d="M309.709 162.066L309.709 162.949L185.843 162.949L185.712 162.808L166.168 141.952L166.168 95.9649L182.129 82.8351L182.129 35.5367L182.249 35.4094L198.531 18.1342L199.175 18.7384L183.013 35.8864L183.013 83.2515L167.054 96.3813L167.054 141.604L186.228 162.066L309.709 162.066Z" fill="#21232A" stroke="#21232A" stroke-width="4" stroke-miterlimit="10"/>
<path d="M309.66 184.22L309.66 185.104L271.274 185.104L264.347 179.577L241.286 179.747L235.223 185.104L170.942 185.104L170.811 184.958L128.087 137.845L128.087 110.201L141.596 96.4673L141.596 39.2098L142.482 39.2098L142.482 96.8269L128.972 110.561L128.972 137.505L171.336 184.22L234.887 184.22L240.947 178.866L264.654 178.692L271.585 184.22L309.66 184.22Z" fill="#21232A" stroke="#21232A" stroke-width="4" stroke-miterlimit="10"/>
<path d="M309.709 152.263L309.709 153.146L234.898 153.146L229.529 148.828L193.105 148.828L181.782 135.419L181.782 113.655L193.907 101.562L193.907 54.5363L209.15 43.1352L209.15 7.4245L210.035 7.4245L210.035 43.5776L194.792 54.9787L194.792 101.927L182.668 114.019L182.668 135.096L193.516 147.944L229.841 147.944L235.21 152.263L309.709 152.263Z" fill="#21232A" stroke="#21232A" stroke-width="4" stroke-miterlimit="10"/>
<path d="M309.66 230.622L152.284 230.65L110.667 185.622L78.7592 185.622L68.3656 170.678L32.6057 170.678L22.559 187.607L9.50293 187.607L9.50293 186.725L22.0535 186.725L32.1002 169.796L68.829 169.796L79.2225 184.738L111.055 184.738L152.673 229.768L309.66 229.739L309.66 230.622Z" fill="#21232A" stroke="#21232A" stroke-width="4" stroke-miterlimit="10"/>
<path d="M9.82006 138.97C9.82006 137.095 8.2952 135.574 6.41418 135.574C4.53317 135.574 3.0083 137.095 3.0083 138.97C3.0083 140.846 4.53317 142.367 6.41418 142.367C8.2952 142.367 9.82006 140.846 9.82006 138.97Z" fill="#21232A" stroke="#21232A" stroke-width="4" stroke-miterlimit="10"/>
<path d="M10.2638 138.97C10.2638 141.086 8.5367 142.809 6.41437 142.809C4.29204 142.809 2.56494 141.086 2.56494 138.97C2.56494 136.853 4.29204 135.13 6.41437 135.13C8.5367 135.13 10.2638 136.853 10.2638 138.97ZM3.45079 138.97C3.45079 140.599 4.78019 141.925 6.41437 141.925C8.04855 141.925 9.37794 140.599 9.37794 138.97C9.37794 137.34 8.04855 136.014 6.41437 136.014C4.78019 136.014 3.45079 137.34 3.45079 138.97Z" fill="#21232A" stroke="#21232A" stroke-width="4" stroke-miterlimit="10"/>
<path d="M120.894 37.5731C119.563 36.2462 117.406 36.2462 116.076 37.5731C114.745 38.9001 114.745 41.0516 116.076 42.3785C117.406 43.7055 119.563 43.7055 120.894 42.3785C122.225 41.0516 122.225 38.9001 120.894 37.5731Z" fill="#21232A" stroke="#21232A" stroke-width="4" stroke-miterlimit="10"/>
<path d="M122.332 39.9715C122.332 42.0881 120.605 43.8105 118.482 43.8105C116.36 43.8105 114.633 42.0881 114.633 39.9715C114.633 37.8549 116.36 36.1324 118.482 36.1324C120.606 36.1324 122.332 37.8549 122.332 39.9715ZM115.519 39.9715C115.519 41.6013 116.848 42.9271 118.482 42.9271C120.116 42.9271 121.446 41.6013 121.446 39.9715C121.446 38.3417 120.116 37.0159 118.482 37.0159C116.848 37.0159 115.519 38.3417 115.519 39.9715Z" fill="#21232A" stroke="#21232A" stroke-width="4" stroke-miterlimit="10"/>
<path d="M145.158 35.813C145.158 33.9363 143.633 32.415 141.751 32.415C139.87 32.415 138.344 33.9363 138.344 35.813C138.344 37.6896 139.87 39.2109 141.751 39.2109C143.633 39.2109 145.158 37.6896 145.158 35.813Z" fill="#21232A" stroke="#21232A" stroke-width="4" stroke-miterlimit="10"/>
<path d="M145.601 35.8133C145.601 37.9299 143.874 39.6523 141.751 39.6523C139.629 39.6523 137.902 37.9299 137.902 35.8133C137.902 33.6966 139.629 31.9742 141.751 31.9742C143.874 31.9742 145.601 33.6966 145.601 35.8133ZM138.788 35.8133C138.788 37.443 140.117 38.7689 141.751 38.7689C143.385 38.7689 144.715 37.443 144.715 35.8133C144.715 34.1835 143.385 32.8577 141.751 32.8577C140.117 32.8577 138.788 34.1835 138.788 35.8133Z" fill="#21232A" stroke="#21232A" stroke-width="4" stroke-miterlimit="10"/>
<path d="M159.172 31.649C158.739 29.8226 156.904 28.6917 155.073 29.1229C153.242 29.5542 152.108 31.3843 152.54 33.2107C152.973 35.037 154.808 36.168 156.639 35.7367C158.47 35.3055 159.604 33.4753 159.172 31.649Z" fill="#21232A" stroke="#21232A" stroke-width="4" stroke-miterlimit="10"/>
<path d="M159.734 32.4148C159.734 34.5314 158.006 36.2539 155.884 36.2539C153.762 36.2539 152.035 34.5314 152.035 32.4148C152.035 30.2982 153.762 28.5758 155.884 28.5758C158.008 28.577 159.734 30.2982 159.734 32.4148ZM152.921 32.4148C152.921 34.0446 154.25 35.3704 155.884 35.3704C157.518 35.3704 158.848 34.0446 158.848 32.4148C158.848 30.785 157.518 29.4592 155.884 29.4592C154.251 29.4592 152.921 30.7863 152.921 32.4148Z" fill="#21232A" stroke="#21232A" stroke-width="4" stroke-miterlimit="10"/>
<path d="M199.932 20.7005C199.747 18.8338 198.079 17.4703 196.206 17.6551C194.334 17.84 192.966 19.5031 193.151 21.3699C193.337 23.2367 195.005 24.6002 196.877 24.4153C198.75 24.2305 200.117 22.5673 199.932 20.7005Z" fill="#21232A" stroke="#21232A" stroke-width="4" stroke-miterlimit="10"/>
<path d="M200.381 21.0144C200.381 23.131 198.654 24.8535 196.532 24.8535C194.409 24.8535 192.682 23.131 192.682 21.0144C192.682 18.8978 194.409 17.1754 196.532 17.1754C198.654 17.1754 200.381 18.8966 200.381 21.0144ZM193.568 21.0144C193.568 22.6442 194.897 23.9701 196.532 23.9701C198.166 23.9701 199.495 22.6442 199.495 21.0144C199.495 19.3846 198.166 18.0588 196.532 18.0588C194.897 18.0588 193.568 19.3834 193.568 21.0144Z" fill="#21232A" stroke="#21232A" stroke-width="4" stroke-miterlimit="10"/>
<path d="M212.517 5.31695C212.084 3.4906 210.249 2.35965 208.418 2.7909C206.587 3.22215 205.453 5.0523 205.885 6.87865C206.317 8.705 208.153 9.83595 209.984 9.40469C211.815 8.97344 212.949 7.14329 212.517 5.31695Z" fill="#21232A" stroke="#21232A" stroke-width="4" stroke-miterlimit="10"/>
<path d="M213.083 6.08477C213.083 8.20139 211.356 9.92383 209.233 9.92383C207.111 9.92383 205.384 8.20139 205.384 6.08477C205.384 3.96815 207.111 2.24568 209.233 2.24568C211.356 2.24568 213.083 3.96815 213.083 6.08477ZM206.27 6.08477C206.27 7.71456 207.599 9.04037 209.233 9.04037C210.867 9.04037 212.197 7.71456 212.197 6.08477C212.197 4.45498 210.867 3.12914 209.233 3.12914C207.599 3.12914 206.27 4.45498 206.27 6.08477Z" fill="#21232A" stroke="#21232A" stroke-width="4" stroke-miterlimit="10"/>
<path d="M224.431 15.4556C224.431 13.5789 222.906 12.0576 221.024 12.0576C219.143 12.0576 217.617 13.5789 217.617 15.4556C217.617 17.3322 219.143 18.8535 221.024 18.8535C222.906 18.8535 224.431 17.3322 224.431 15.4556Z" fill="#21232A" stroke="#21232A" stroke-width="4" stroke-miterlimit="10"/>
<path d="M224.874 15.4558C224.874 17.5725 223.147 19.2949 221.024 19.2949C218.902 19.2949 217.175 17.5725 217.175 15.4558C217.175 13.3392 218.902 11.6168 221.024 11.6168C223.147 11.618 224.874 13.3392 224.874 15.4558ZM218.061 15.4558C218.061 17.0856 219.39 18.4115 221.024 18.4115C222.658 18.4115 223.988 17.0856 223.988 15.4558C223.988 13.826 222.658 12.5002 221.024 12.5002C219.39 12.5002 218.061 13.826 218.061 15.4558Z" fill="#21232A" stroke="#21232A" stroke-width="4" stroke-miterlimit="10"/>
<path d="M9.94641 187.167C9.94641 189.283 8.21931 191.006 6.09699 191.006C3.97466 191.006 2.24756 189.283 2.24756 187.167C2.24756 185.05 3.97466 183.328 6.09699 183.328C8.21931 183.328 9.94641 185.05 9.94641 187.167ZM3.13341 187.167C3.13341 188.797 4.46281 190.122 6.09699 190.122C7.73116 190.122 9.06056 188.797 9.06056 187.167C9.06056 185.537 7.73116 184.211 6.09699 184.211C4.46281 184.211 3.13341 185.537 3.13341 187.167Z" fill="#21232A" stroke="#21232A" stroke-width="4" stroke-miterlimit="10"/>
<path d="M309.752 207.152L309.752 208.035L252.791 208.035L245.864 204.58L210.939 204.752L205.96 208.035L159.543 208.035L118.288 162.029L95.8888 162.349L79.8196 131.754L79.8184 131.65L79.1283 92.4513L60.5576 75.0735L61.1635 74.4297L80.0067 92.062L80.0104 92.2486L80.7017 131.53L96.4203 161.458L118.678 161.141L118.813 161.29L159.939 207.152L205.693 207.152L210.67 203.871L210.803 203.87L246.07 203.697L253 207.152L309.752 207.152Z" fill="#21232A" stroke="#21232A" stroke-width="4" stroke-miterlimit="10"/>
<path d="M64.427 74.7524C64.427 72.8758 62.9016 71.3545 61.0199 71.3545C59.1382 71.3545 57.6128 72.8758 57.6128 74.7524C57.6128 76.6291 59.1382 78.1504 61.0199 78.1504C62.9016 78.1504 64.427 76.6291 64.427 74.7524Z" fill="#21232A" stroke="#21232A" stroke-width="4" stroke-miterlimit="10"/>
<path d="M64.8693 74.7527C64.8693 76.8694 63.1422 78.5918 61.0198 78.5918C58.8975 78.5918 57.1704 76.8694 57.1704 74.7527C57.1704 72.6361 58.8975 70.9136 61.0198 70.9136C63.1422 70.9136 64.8693 72.6361 64.8693 74.7527ZM58.0563 74.7527C58.0563 76.3825 59.3857 77.7083 61.0198 77.7083C62.654 77.7083 63.9834 76.3825 63.9834 74.7527C63.9834 73.123 62.654 71.7971 61.0198 71.7971C59.3857 71.7971 58.0563 73.123 58.0563 74.7527Z" fill="#21232A" stroke="#21232A" stroke-width="4" stroke-miterlimit="10"/>
</g>
<defs>
<clipPath id="clip0_480_704">
<rect width="471" height="312" fill="white" transform="translate(0 471) rotate(-90)"/>
</clipPath>
</defs>
</svg>
