<svg width="1399" height="831" viewBox="0 0 1399 831" fill="none" xmlns="http://www.w3.org/2000/svg">
<path d="M272.27 312.522C272.27 309.414 269.741 306.885 266.619 306.871C263.748 306.871 261.41 309.002 261.04 311.769L136.367 311.791C136.397 311.821 136.426 311.851 136.456 311.88L93.3398 311.888C92.9704 309.121 90.633 306.991 87.7625 306.991C84.6554 306.992 82.1247 309.523 82.1094 312.645C82.1088 315.752 84.6385 318.282 87.7605 318.296C90.631 318.295 92.9692 316.164 93.3396 313.397L261.039 313.278C261.409 316.045 263.746 318.175 266.617 318.175C269.724 318.174 272.254 315.644 272.27 312.522Z" fill="url(#paint0_linear_480_413)"/>
<path d="M503.676 591.136L522.139 610.99C521.117 612.218 521.132 614.067 522.271 615.266C523.499 616.582 525.555 616.656 526.872 615.428C528.189 614.199 528.264 612.143 527.036 610.826C525.912 609.613 524.092 609.48 522.79 610.398L504.076 590.263L326.167 590.295C325.931 584.643 321.286 580.117 315.575 580.118C309.715 580.119 304.965 584.869 304.964 590.728C304.963 596.588 309.712 601.336 315.571 601.335C321.282 601.334 325.929 596.806 326.167 591.154L503.676 591.136ZM315.556 600.462C310.17 600.463 305.806 596.099 305.822 590.728C305.823 585.342 310.189 580.977 315.56 580.991C320.798 580.99 325.058 585.132 325.279 590.296L323.267 590.296C323.046 586.227 319.658 582.987 315.544 582.988C311.283 582.989 307.805 586.466 307.805 590.728C307.804 594.989 311.28 598.466 315.542 598.465C319.655 598.464 323.044 595.223 323.267 591.154L325.279 591.154C325.056 596.318 320.779 600.476 315.556 600.462Z" fill="url(#paint1_linear_480_413)"/>
<path d="M1307.41 319.852C1313.27 319.851 1318.02 315.101 1318.02 309.241C1318.02 303.382 1313.27 298.633 1307.41 298.634C1301.7 298.635 1297.05 303.164 1296.82 308.816L1119.29 308.848L1100.83 288.995C1101.85 287.767 1101.84 285.917 1100.7 284.719C1099.47 283.402 1097.41 283.329 1096.1 284.557C1094.78 285.785 1094.71 287.842 1095.93 289.159C1097.06 290.372 1098.88 290.504 1100.18 289.587L1118.89 309.721L1296.83 309.66C1297.05 315.326 1301.71 319.838 1307.41 319.852ZM1297.69 309.659L1299.7 309.659C1299.92 313.728 1303.31 316.968 1307.42 316.967C1311.69 316.966 1315.16 313.488 1315.16 309.227C1315.16 304.966 1311.69 301.489 1307.43 301.49C1303.31 301.491 1299.92 304.732 1299.7 308.801L1297.69 308.801C1297.91 303.637 1302.17 299.494 1307.41 299.493C1312.8 299.492 1317.16 303.856 1317.15 309.227C1317.15 314.613 1312.78 318.978 1307.41 318.964C1302.19 318.98 1297.93 314.838 1297.69 309.659Z" fill="url(#paint2_linear_480_413)"/>
<path d="M75.494 73.8651L100.371 47.0943L189.947 47.0783C190.257 54.6982 196.529 60.7931 204.223 60.7918C212.095 60.7903 218.517 54.3676 218.519 46.4961C218.52 38.6245 212.1 32.2041 204.228 32.2055C196.534 32.2069 190.26 38.3041 189.947 45.9241L99.8683 45.9403L74.6359 73.0959C72.8606 71.8533 70.4192 72.0461 68.8949 73.6887C67.2374 75.4646 67.3553 78.2462 69.1157 79.8883C70.891 81.5452 73.6727 81.4263 75.3154 79.6652C76.8545 78.0078 76.8697 75.5368 75.494 73.8651ZM204.228 33.3596C211.478 33.3583 217.366 39.2461 217.365 46.4963C217.363 53.7464 211.473 59.6363 204.223 59.6376C197.18 59.6389 191.426 54.0618 191.116 47.0928L193.809 47.0924C194.119 52.5817 198.66 56.9457 204.224 56.9447C209.965 56.9437 214.656 52.2525 214.657 46.5116C214.673 40.7559 209.968 36.0811 204.227 36.0821C198.664 36.0831 194.121 40.4488 193.809 45.9383L191.116 45.9388C191.428 38.9401 197.185 33.3609 204.228 33.3596ZM206.815 46.4834C206.815 45.0334 205.646 43.8943 204.211 43.8797C202.968 43.88 201.947 44.7531 201.681 45.9072L194.963 45.9085C195.275 41.0701 199.3 37.2224 204.213 37.2215C209.332 37.2206 213.489 41.3775 213.488 46.497C213.487 51.6165 209.329 55.7749 204.209 55.7759C199.297 55.7767 195.273 51.9305 194.963 47.0922L201.681 47.0909C201.947 48.245 202.982 49.103 204.21 49.1176C205.66 49.0877 206.815 47.9334 206.815 46.4834Z" fill="url(#paint3_linear_480_413)"/>
<path d="M186.297 518.5C185.231 518.5 184.373 519.24 184.166 520.246L104.769 522.598L70.5985 556.769L70.5953 574.376C69.1009 574.569 67.9466 575.841 67.9463 577.38C67.946 579.067 69.3218 580.443 71.0086 580.443C72.6953 580.442 74.0716 579.066 74.0719 577.379C74.0722 575.84 72.9183 574.568 71.424 574.376L71.427 557.124L105.124 523.427L184.195 521.075C184.373 522.11 185.26 522.88 186.325 522.879C187.539 522.879 188.501 521.917 188.501 520.704C188.457 519.476 187.48 518.5 186.297 518.5Z" fill="url(#paint4_linear_480_413)"/>
<path d="M117.919 377.135L273.797 375.879C274.078 379.652 277.229 382.625 281.076 382.624C285.1 382.624 288.386 379.338 288.386 375.314C288.387 371.289 285.103 368.005 281.078 368.006C277.202 368.006 274.02 371.04 273.783 374.858L117.89 376.04L117.609 375.966L89.1948 405.711L-50.7178 405.736C-50.9838 403.813 -52.6111 402.304 -54.6086 402.319C-56.7984 402.32 -58.5595 404.081 -58.5599 406.27C-58.5602 408.46 -56.7998 410.221 -54.61 410.22C-52.5977 410.22 -50.9847 408.725 -50.718 406.802L89.6386 406.776L117.919 377.135ZM281.093 370.27C283.874 370.269 286.138 372.532 286.137 375.314C286.137 378.096 283.873 380.36 281.091 380.361C278.487 380.361 276.357 378.379 276.106 375.849L277.985 375.833C278.088 376.41 278.354 376.973 278.798 377.417C279.952 378.57 281.846 378.57 283 377.416C284.155 376.261 284.155 374.368 283.001 373.214C281.847 372.06 279.953 372.06 278.799 373.214C278.355 373.658 278.074 374.235 277.97 374.813L276.076 374.842C276.343 372.268 278.474 370.255 281.093 370.27Z" fill="url(#paint5_linear_480_413)"/>
<path d="M1120.74 513.656C1124.76 513.656 1128.05 510.37 1128.05 506.346C1128.05 502.321 1124.76 499.037 1120.74 499.038C1116.86 499.038 1113.68 502.072 1113.44 505.89L957.549 507.072L957.268 506.998L914.943 550.654L775.031 550.679C774.765 548.756 773.137 547.247 771.14 547.262C768.95 547.263 767.189 549.024 767.189 551.213C767.188 553.403 768.949 555.164 771.138 555.163C773.151 555.163 774.764 553.668 775.031 551.745L915.387 551.72L957.594 508.182L1113.47 506.925C1113.74 510.684 1116.9 513.672 1120.74 513.656ZM1120.74 501.316C1123.52 501.316 1125.78 503.579 1125.78 506.361C1125.78 509.143 1123.52 511.407 1120.74 511.407C1118.13 511.408 1116 509.426 1115.75 506.896L1117.63 506.88C1117.73 507.457 1118 508.02 1118.44 508.463C1119.6 509.617 1121.49 509.617 1122.64 508.463C1123.8 507.308 1123.8 505.414 1122.65 504.261C1121.49 503.107 1119.6 503.107 1118.44 504.261C1118 504.705 1117.72 505.282 1117.61 505.859L1115.72 505.889C1115.99 503.315 1118.12 501.302 1120.74 501.316Z" fill="url(#paint6_linear_480_413)"/>
<path d="M1306.87 531.852C1310.89 531.851 1314.18 528.566 1314.18 524.541C1314.18 520.517 1310.9 517.233 1306.87 517.233C1302.99 517.234 1299.81 520.268 1299.57 524.085L973.452 525.313L973.171 525.239L930.846 568.895L790.933 568.92C790.667 566.997 789.04 565.488 787.043 565.503C784.853 565.503 783.092 567.264 783.091 569.454C783.091 571.644 784.851 573.405 787.041 573.404C789.053 573.404 790.666 571.909 790.933 569.986L931.29 569.96L973.496 526.422L1299.59 525.106C1299.87 528.879 1303.02 531.853 1306.87 531.852ZM1306.87 519.482C1309.65 519.482 1311.92 521.745 1311.91 524.527C1311.91 527.308 1309.65 529.573 1306.87 529.573C1304.26 529.574 1302.13 527.591 1301.88 525.061L1303.76 525.046C1303.87 525.623 1304.13 526.185 1304.58 526.629C1305.73 527.783 1307.62 527.783 1308.78 526.628C1309.93 525.474 1309.93 523.58 1308.78 522.426C1307.62 521.272 1305.73 521.273 1304.58 522.427C1304.12 522.886 1303.85 523.448 1303.75 524.025L1301.85 524.055C1302.12 521.51 1304.25 519.498 1306.87 519.482Z" fill="url(#paint7_linear_480_413)"/>
<path d="M729.494 23.2335C728.577 22.3163 727.097 22.3165 726.18 23.234C725.869 23.5448 725.706 23.9443 725.603 24.3439L460.322 25.5308L460.041 25.4569L431.627 55.2023L253.717 55.2343C253.451 53.3108 251.824 51.8019 249.827 51.8171C247.637 51.8174 245.876 53.5785 245.875 55.7683C245.875 57.9581 247.635 59.7186 249.825 59.7182C251.837 59.7178 253.45 58.2231 253.717 56.2996L432.07 56.2675L460.366 26.6405L725.602 25.3796C725.706 25.8087 725.854 26.2229 726.194 26.5632C727.111 27.4804 728.591 27.4801 729.508 26.5626C730.426 25.6451 730.411 24.1507 729.494 23.2335Z" fill="url(#paint8_linear_480_413)"/>
<path d="M228.476 47.2785C229.808 48.6099 231.968 48.6095 233.3 47.2776C233.803 46.7744 234.114 46.1677 234.232 45.5167L359.068 44.5621L359.438 44.6656L396.494 5.86337L578.931 5.83059C579.256 8.34588 581.402 10.2838 584.02 10.2981C586.861 10.2976 589.17 7.989 589.17 5.14814C589.171 2.30727 586.863 -0.000510221 584.022 8.4615e-08C581.418 0.000467865 579.287 1.95395 578.932 4.46937L395.932 4.50223L359.039 43.1417L234.203 44.1555C234.07 43.5488 233.759 42.9422 233.286 42.4688C231.955 41.1374 229.794 41.1378 228.463 42.4697C227.131 43.8016 227.145 45.947 228.476 47.2785Z" fill="url(#paint9_linear_480_413)"/>
<path d="M937.656 794.58C931.797 794.581 927.046 799.331 927.045 805.191C927.044 811.05 931.793 815.799 937.652 815.798C943.364 815.797 948.01 811.268 948.248 805.616L1125.77 805.584L1144.23 825.437C1143.21 826.666 1143.23 828.515 1144.37 829.713C1145.6 831.03 1147.65 831.104 1148.97 829.875C1150.29 828.647 1150.36 826.59 1149.13 825.274C1148.01 824.06 1146.19 823.928 1144.89 824.845L1126.17 804.711L948.263 804.743C948.013 799.106 943.367 794.579 937.656 794.58ZM947.39 804.758L945.378 804.758C945.157 800.689 941.769 797.45 937.656 797.45C933.394 797.451 929.917 800.929 929.916 805.19C929.915 809.451 933.392 812.928 937.653 812.927C941.766 812.926 945.155 809.685 945.378 805.616L947.39 805.616C947.167 810.78 942.905 814.924 937.667 814.925C932.281 814.926 927.917 810.561 927.933 805.19C927.934 799.805 932.3 795.439 937.671 795.453C942.894 795.437 947.154 799.579 947.39 804.758Z" fill="url(#paint10_linear_480_413)"/>
<path d="M625.743 764.171C626.661 765.088 628.14 765.088 629.058 764.17C629.368 763.859 629.531 763.46 629.635 763.06L855.144 761.88L855.425 761.954L883.839 732.209L1061.75 732.177C1062.01 734.1 1063.64 735.609 1065.64 735.594C1067.83 735.594 1069.59 733.833 1069.59 731.643C1069.59 729.453 1067.83 727.693 1065.64 727.693C1063.63 727.693 1062.01 729.188 1061.75 731.112L883.395 731.144L855.099 760.771L629.635 762.025C629.532 761.595 629.384 761.181 629.043 760.841C628.126 759.924 626.647 759.924 625.729 760.841C624.826 761.774 624.826 763.253 625.743 764.171Z" fill="url(#paint11_linear_480_413)"/>
<path d="M1103.46 747.75C1103.46 744.909 1101.15 742.601 1098.31 742.602C1095.7 742.602 1093.57 744.556 1093.22 747.071L910.218 747.104L873.324 785.743L748.947 786.742C748.799 786.239 748.548 785.781 748.148 785.381C746.891 784.124 744.849 784.124 743.591 785.382C742.333 786.64 742.333 788.682 743.59 789.939C744.848 791.197 746.89 791.196 748.148 789.938C748.665 789.42 748.961 788.769 749.05 788.089L873.353 787.134L873.723 787.238L910.78 748.435L1093.22 748.403C1093.54 750.918 1095.69 752.856 1098.31 752.87C1101.16 752.914 1103.47 750.605 1103.46 747.75Z" fill="url(#paint12_linear_480_413)"/>
<path d="M462.929 171.302C462.929 169.408 461.406 167.885 459.512 167.885C457.796 167.885 456.36 169.173 456.138 170.845L387.217 170.857C387.217 170.857 387.217 170.857 387.202 170.842L144.663 170.886C144.442 169.214 143.022 167.912 141.29 167.927C139.397 167.928 137.872 169.452 137.872 171.346C137.872 173.24 139.395 174.764 141.289 174.763C143.02 174.778 144.441 173.475 144.663 171.803L213.584 171.791C213.584 171.791 213.584 171.791 213.599 171.806L456.138 171.762C456.359 173.434 457.78 174.736 459.511 174.721C461.405 174.72 462.929 173.196 462.929 171.302Z" fill="url(#paint13_linear_480_413)"/>
<path d="M666.619 220.7C666.62 218.806 665.096 217.282 663.202 217.282C661.486 217.283 660.05 218.57 659.828 220.242L487.955 220.273C487.852 219.607 487.541 218.971 487.024 218.453C485.707 217.137 483.576 217.137 482.259 218.454C480.942 219.771 480.942 221.902 482.258 223.219C483.575 224.535 485.706 224.535 487.023 223.218C487.585 222.655 487.896 221.93 487.97 221.176L659.813 221.145C660.035 222.817 661.44 224.104 663.186 224.104C665.095 224.118 666.634 222.579 666.619 220.7Z" fill="url(#paint14_linear_480_413)"/>
<path d="M1054.12 450.622C1054.12 448.728 1052.6 447.204 1050.7 447.205C1048.99 447.205 1047.55 448.492 1047.33 450.164L875.456 450.195C875.352 449.529 875.042 448.893 874.524 448.376C873.207 447.059 871.077 447.059 869.76 448.376C868.442 449.694 868.442 451.824 869.759 453.141C871.075 454.457 873.206 454.457 874.523 453.14C875.085 452.578 875.396 451.853 875.47 451.098L1047.31 451.067C1047.53 452.739 1048.94 454.026 1050.69 454.026C1052.58 454.025 1054.1 452.501 1054.12 450.622Z" fill="url(#paint15_linear_480_413)"/>
<path d="M1266.39 662.894C1266.39 661 1264.87 659.476 1262.97 659.477C1261.26 659.477 1259.82 660.765 1259.6 662.437L1087.73 662.467C1087.62 661.802 1087.31 661.165 1086.8 660.648C1085.48 659.331 1083.35 659.332 1082.03 660.649C1080.71 661.966 1080.71 664.096 1082.03 665.413C1083.35 666.73 1085.48 666.729 1086.8 665.412C1087.36 664.85 1087.67 664.125 1087.74 663.37L1259.59 663.339C1259.81 665.011 1261.21 666.298 1262.96 666.298C1264.87 666.312 1266.39 664.788 1266.39 662.894Z" fill="url(#paint16_linear_480_413)"/>
<path d="M865.038 375.432C866.414 373.76 866.385 371.304 864.876 369.676C863.219 367.901 860.452 367.798 858.677 369.456C856.901 371.113 856.797 373.88 858.453 375.655C859.962 377.283 862.418 377.489 864.194 376.246L889.417 403.392L1129.2 403.32C1129.51 410.94 1135.79 417.035 1143.48 417.033C1151.35 417.032 1157.77 410.609 1157.78 402.738C1157.78 394.866 1151.36 388.446 1143.48 388.447C1135.79 388.448 1129.52 394.546 1129.2 402.166L889.92 402.209L865.038 375.432ZM1143.48 389.601C1150.73 389.6 1156.62 395.488 1156.62 402.738C1156.62 409.988 1150.73 415.878 1143.48 415.879C1136.44 415.88 1130.68 410.303 1130.37 403.334L1133.07 403.334C1133.38 408.823 1137.92 413.187 1143.48 413.186C1149.22 413.185 1153.91 408.494 1153.91 402.753C1153.9 396.997 1149.22 392.323 1143.48 392.324C1137.92 392.325 1133.38 396.69 1133.07 402.18L1130.37 402.151C1130.68 395.182 1136.43 389.617 1143.48 389.601Z" fill="url(#paint17_linear_480_413)"/>
<path d="M855.561 334.286C857.751 334.285 859.512 332.524 859.512 330.334C859.512 328.144 857.752 326.384 855.562 326.385C853.55 326.385 851.937 327.88 851.67 329.803L711.314 329.828L683.018 359.455L527.14 360.711C526.86 356.938 523.709 353.965 519.862 353.966C515.837 353.966 512.552 357.252 512.551 361.276C512.55 365.301 515.834 368.585 519.859 368.584C523.736 368.584 526.917 365.55 527.155 361.732L683.047 360.55L683.329 360.624L711.743 330.879L851.655 330.854C851.936 332.792 853.563 334.271 855.561 334.286ZM519.859 366.335C517.078 366.336 514.814 364.072 514.815 361.291C514.815 358.509 517.08 356.245 519.861 356.244C522.465 356.244 524.596 358.226 524.847 360.756L522.968 360.771C522.864 360.194 522.598 359.632 522.154 359.188C521 358.034 519.106 358.035 517.952 359.189C516.798 360.343 516.797 362.237 517.951 363.391C519.105 364.545 520.999 364.545 522.153 363.39C522.612 362.932 522.879 362.369 522.982 361.792L524.876 361.762C524.624 364.322 522.478 366.35 519.859 366.335Z" fill="url(#paint18_linear_480_413)"/>
<path d="M758.856 400.693C758.856 398.504 757.096 396.743 754.906 396.744C752.894 396.744 751.281 398.239 751.014 400.162L118.122 400.276L89.8267 429.903L-4.17355 430.674C-4.30661 430.038 -4.61719 429.432 -5.12017 428.929C-6.51076 427.538 -8.75979 427.538 -10.1509 428.93C-11.542 430.321 -11.5424 432.57 -10.1518 433.96C-8.76117 435.351 -6.51218 435.35 -5.12109 433.959C-4.49954 433.338 -4.17387 432.539 -4.09974 431.725L89.8561 430.998L90.1373 431.072L118.551 401.326L750.999 401.213C751.265 403.136 752.892 404.645 754.89 404.63C757.08 404.629 758.855 402.854 758.856 400.693Z" fill="url(#paint19_linear_480_413)"/>
<path d="M768.897 431.394C767.832 431.394 766.988 432.237 766.988 433.303C766.988 434.368 767.831 435.211 768.896 435.211C769.962 435.211 770.805 434.367 770.805 433.302C770.806 432.237 769.962 431.393 768.897 431.394Z" fill="url(#paint20_linear_480_413)"/>
<path d="M781 431.392C779.935 431.392 779.091 432.235 779.091 433.301C779.091 434.366 779.934 435.209 781 435.209C782.065 435.209 782.908 434.365 782.909 433.3C782.894 432.249 782.051 431.406 781 431.392Z" fill="url(#paint21_linear_480_413)"/>
<path d="M793.104 431.389C792.038 431.39 791.195 432.233 791.195 433.298C791.194 434.364 792.037 435.207 793.103 435.207C794.168 435.207 795.012 434.363 795.012 433.298C794.997 432.247 794.139 431.389 793.104 431.389Z" fill="url(#paint22_linear_480_413)"/>
<path d="M327.214 443.65C326.149 443.65 325.305 444.494 325.305 445.559C325.305 446.625 326.148 447.468 327.213 447.468C328.279 447.468 329.122 446.624 329.122 445.559C329.108 444.508 328.265 443.665 327.214 443.65Z" fill="url(#paint23_linear_480_413)"/>
<path d="M339.303 443.663C338.237 443.663 337.394 444.507 337.394 445.572C337.393 446.637 338.237 447.48 339.302 447.48C340.367 447.48 341.211 446.637 341.211 445.571C341.211 444.506 340.368 443.663 339.303 443.663Z" fill="url(#paint24_linear_480_413)"/>
<path d="M351.406 443.661C350.34 443.661 349.497 444.504 349.497 445.57C349.497 446.635 350.34 447.478 351.405 447.478C352.47 447.478 353.314 446.634 353.314 445.569C353.314 444.504 352.456 443.646 351.406 443.661Z" fill="url(#paint25_linear_480_413)"/>
<path d="M363.509 443.659C362.444 443.659 361.6 444.502 361.6 445.568C361.6 446.633 362.443 447.476 363.508 447.476C364.574 447.476 365.417 446.632 365.417 445.567C365.418 444.502 364.56 443.644 363.509 443.659Z" fill="url(#paint26_linear_480_413)"/>
<path d="M375.612 443.656C374.547 443.657 373.704 444.5 373.703 445.565C373.703 446.631 374.546 447.474 375.612 447.474C376.677 447.474 377.521 446.63 377.521 445.565C377.521 444.499 376.663 443.641 375.612 443.656Z" fill="url(#paint27_linear_480_413)"/>
<path d="M387.716 443.654C386.65 443.654 385.807 444.498 385.807 445.563C385.806 446.629 386.65 447.472 387.715 447.472C388.78 447.471 389.624 446.628 389.624 445.563C389.624 444.497 388.766 443.639 387.716 443.654Z" fill="url(#paint28_linear_480_413)"/>
<path d="M-28.9854 176.273C-30.0507 176.274 -30.8943 177.117 -30.8944 178.182C-30.8946 179.248 -30.0514 180.091 -28.9861 180.091C-27.9208 180.091 -27.0772 179.247 -27.077 178.182C-27.0916 177.131 -27.9349 176.288 -28.9854 176.273Z" fill="url(#paint29_linear_480_413)"/>
<path d="M-16.8969 176.286C-17.9622 176.286 -18.8058 177.13 -18.806 178.195C-18.8062 179.26 -17.9629 180.104 -16.8976 180.103C-15.8323 180.103 -14.9887 179.26 -14.9886 178.194C-14.9884 177.129 -15.8464 176.271 -16.8969 176.286Z" fill="url(#paint30_linear_480_413)"/>
<path d="M-4.79364 176.284C-5.85897 176.284 -6.70252 177.128 -6.70271 178.193C-6.70291 179.258 -5.85967 180.101 -4.79435 180.101C-3.72902 180.101 -2.88548 179.258 -2.88529 178.192C-2.88509 177.127 -3.74311 176.269 -4.79364 176.284Z" fill="url(#paint31_linear_480_413)"/>
<path d="M7.30962 176.282C6.2443 176.282 5.40075 177.125 5.40056 178.191C5.40037 179.256 6.24359 180.099 7.30892 180.099C8.37424 180.099 9.21779 179.255 9.21798 178.19C9.21817 177.125 8.36016 176.267 7.30962 176.282Z" fill="url(#paint32_linear_480_413)"/>
<path d="M19.4129 176.279C18.3476 176.28 17.504 177.123 17.5038 178.189C17.5036 179.254 18.3469 180.097 19.4122 180.097C20.4775 180.097 21.3211 179.253 21.3212 178.188C21.3214 177.123 20.4634 176.265 19.4129 176.279Z" fill="url(#paint33_linear_480_413)"/>
<path d="M31.5162 176.277C30.4508 176.278 29.6073 177.121 29.6071 178.186C29.6069 179.252 30.4501 180.095 31.5155 180.095C32.5808 180.095 33.4243 179.251 33.4245 178.186C33.4247 177.12 32.5667 176.262 31.5162 176.277Z" fill="url(#paint34_linear_480_413)"/>
<path d="M494.297 169.314C493.232 169.314 492.389 170.158 492.388 171.223C492.388 172.288 493.231 173.132 494.297 173.131C495.362 173.131 496.206 172.288 496.206 171.222C496.206 170.157 495.363 169.314 494.297 169.314Z" fill="url(#paint35_linear_480_413)"/>
<path d="M506.401 169.312C505.335 169.312 504.492 170.156 504.492 171.221C504.491 172.286 505.335 173.129 506.4 173.129C507.465 173.129 508.309 172.285 508.309 171.22C508.309 170.155 507.451 169.297 506.401 169.312Z" fill="url(#paint36_linear_480_413)"/>
<path d="M518.504 169.31C517.439 169.31 516.595 170.153 516.595 171.219C516.595 172.284 517.438 173.127 518.503 173.127C519.569 173.127 520.412 172.283 520.412 171.218C520.413 170.153 519.554 169.295 518.504 169.31Z" fill="url(#paint37_linear_480_413)"/>
<path d="M1132.35 700.367C1131.24 699.258 1129.46 699.258 1128.35 700.368C1127.89 700.827 1127.67 701.404 1127.6 702.011L173.598 702.182C173.376 700.51 171.971 699.223 170.225 699.223C168.331 699.224 166.807 700.748 166.807 702.642C166.806 704.536 168.33 706.059 170.224 706.059C171.94 706.059 173.376 704.771 173.598 703.099L1127.63 702.928C1127.73 703.446 1127.94 703.978 1128.34 704.378C1129.45 705.487 1131.22 705.487 1132.33 704.377C1133.46 703.252 1133.46 701.477 1132.35 700.367Z" fill="url(#paint38_linear_480_413)"/>
<path d="M751.886 241.118C753.558 242.79 756.28 242.789 757.952 241.117C758.633 240.436 759.018 239.578 759.151 238.705L1248.34 238.617C1248.7 241.28 1250.96 243.336 1253.71 243.336C1256.73 243.335 1259.16 240.908 1259.16 237.89C1259.16 234.872 1256.73 232.445 1253.71 232.446C1250.96 232.446 1248.7 234.504 1248.34 237.167L759.137 237.27C758.974 236.456 758.59 235.687 757.954 235.05C756.282 233.379 753.559 233.379 751.887 235.051C750.215 236.724 750.214 239.446 751.886 241.118Z" fill="url(#paint39_linear_480_413)"/>
<path d="M420.644 322.32C422.302 320.544 422.184 317.762 420.423 316.12C418.648 314.463 415.866 314.582 414.224 316.343C412.714 317.971 412.684 320.427 414.06 322.099L385.542 352.51L357.962 352.515C357.652 347.026 353.111 342.662 347.547 342.663C341.806 342.664 337.115 347.355 337.114 353.096C337.128 358.852 341.803 363.526 347.544 363.525C353.107 363.524 357.65 359.159 357.962 353.669L386.06 353.649L414.918 322.868C416.678 324.155 419.135 323.947 420.644 322.32Z" fill="url(#paint40_linear_480_413)"/>
<path d="M1055.09 321.481C1056.75 319.705 1056.63 316.923 1054.87 315.281C1053.09 313.624 1050.31 313.743 1048.67 315.504C1047.16 317.132 1047.13 319.588 1048.51 321.26L1023.63 348.031L986.726 348.037C986.417 340.417 980.145 334.322 972.451 334.324C964.579 334.325 958.156 340.748 958.155 348.62C958.154 356.491 964.574 362.911 972.445 362.91C980.139 362.909 986.414 356.811 986.726 349.191L1024.13 349.185L1049.36 322.029C1051.11 323.301 1053.58 323.109 1055.09 321.481ZM972.431 361.771C965.181 361.772 959.293 355.884 959.294 348.634C959.295 341.384 965.185 335.494 972.436 335.493C979.479 335.491 985.233 341.069 985.543 348.038L982.85 348.038C982.54 342.549 977.998 338.185 972.435 338.186C966.694 338.187 961.988 342.863 962.002 348.619C962.001 354.36 966.69 359.049 972.431 359.048C977.995 359.047 982.538 354.682 982.85 349.192L985.543 349.192C985.231 356.19 979.474 361.769 972.431 361.771ZM969.829 348.632C969.844 350.067 970.998 351.221 972.433 351.236C973.676 351.236 974.697 350.362 974.963 349.208L981.681 349.207C981.369 354.046 977.344 357.893 972.432 357.894C967.312 357.895 963.155 353.738 963.156 348.619C963.157 343.499 967.315 339.341 972.435 339.34C977.347 339.339 981.371 343.185 981.681 348.023L974.963 348.025C974.697 346.871 973.662 346.013 972.434 345.998C971.013 346.028 969.844 347.197 969.829 348.632Z" fill="url(#paint41_linear_480_413)"/>
<path d="M999.901 645.32C1002.33 645.408 1004.37 643.514 1004.46 641.087C1004.55 638.661 1002.65 636.619 1000.23 636.531C998.008 636.442 996.129 638.056 995.759 640.171L895.234 640.426L888.278 647.382C882.671 642.219 873.912 642.339 868.481 647.77C862.902 653.349 862.915 662.419 868.477 667.981C874.054 673.559 883.124 673.542 888.689 667.978C894.12 662.547 894.24 653.787 889.092 648.195L895.692 641.595L995.699 641.326C995.936 643.515 997.681 645.231 999.901 645.32ZM888.293 649.083C892.997 654.231 892.877 662.251 887.905 667.223C882.784 672.344 874.439 672.345 869.321 667.227C864.202 662.108 864.203 653.763 869.324 648.643C874.311 643.655 882.316 643.55 887.464 648.255L885.555 650.164C881.457 646.51 875.154 646.629 871.232 650.551C867.163 654.621 867.161 661.249 871.23 665.318C875.298 669.386 881.927 669.385 885.996 665.315C889.933 661.379 890.052 655.075 886.384 650.992L888.293 649.083ZM880.819 656.557L885.57 651.806C888.765 655.445 888.646 661.009 885.168 664.487C881.557 668.097 875.668 668.099 872.058 664.489C868.449 660.879 868.45 654.99 872.061 651.379C875.538 647.902 881.102 647.782 884.741 650.978L879.991 655.728C878.985 655.107 877.653 655.226 876.78 656.099C875.759 657.12 875.773 658.762 876.779 659.768C877.8 660.789 879.442 660.774 880.449 659.767C881.322 658.894 881.44 657.563 880.819 656.557Z" fill="url(#paint42_linear_480_413)"/>
<path d="M693.944 570.136L693.948 550.694C695.442 550.501 696.596 549.229 696.597 547.69C696.597 546.003 695.221 544.627 693.534 544.628C691.848 544.628 690.471 546.004 690.471 547.691C690.471 549.23 691.625 550.502 693.134 550.709L693.13 569.796L659.433 603.493L592.052 603.505C591.874 602.469 590.987 601.7 589.921 601.7C588.708 601.7 587.746 602.662 587.746 603.876C587.746 605.089 588.707 606.051 589.921 606.05C590.986 606.05 591.844 605.31 592.052 604.304L659.788 604.292L693.944 570.136Z" fill="url(#paint43_linear_480_413)"/>
<path d="M308.39 547.094L464.268 545.838C464.548 549.611 467.699 552.584 471.546 552.583C475.571 552.583 478.856 549.297 478.857 545.273C478.857 541.248 475.573 537.964 471.549 537.965C467.672 537.966 464.49 540.999 464.253 544.817L308.36 545.999L308.079 545.925L279.665 575.67L139.752 575.695C139.486 573.772 137.859 572.263 135.862 572.278C133.672 572.279 131.911 574.04 131.91 576.23C131.91 578.419 133.67 580.18 135.86 580.179C137.872 580.179 139.486 578.684 139.752 576.761L280.109 576.736L308.39 547.094Z" fill="url(#paint44_linear_480_413)"/>
<path d="M793.893 646.703C795.58 646.703 796.956 645.327 796.957 643.64C796.957 641.953 795.581 640.577 793.894 640.578C792.356 640.578 791.083 641.732 790.89 643.227L320.032 643.326L320.032 644.125L790.875 644.04C791.068 645.535 792.34 646.689 793.893 646.703Z" fill="url(#paint45_linear_480_413)"/>
<path d="M338.777 484.545C340.464 484.545 341.84 483.168 341.841 481.481C341.841 479.795 340.465 478.419 338.778 478.419C337.24 478.419 335.967 479.574 335.774 481.068L-14.5991 481.131C-14.3476 481.412 -14.0961 481.664 -13.8446 481.945L335.759 481.882C335.966 483.391 337.239 484.545 338.777 484.545Z" fill="url(#paint46_linear_480_413)"/>
<path d="M-69.0649 240.318C-67.0526 240.318 -65.4396 238.823 -65.1729 236.9L78.4684 236.874L99.0387 216.304L437.205 218.063C437.323 219.513 437.944 220.933 439.069 222.057C441.569 224.558 445.652 224.557 448.153 222.056C450.654 219.555 450.655 215.471 448.155 212.971C445.655 210.471 441.571 210.472 439.07 212.973C437.931 214.112 437.309 215.562 437.205 217.057L99.0093 215.209L98.7282 215.135L78.0395 235.824L-65.158 235.849C-65.4239 233.926 -67.0512 232.417 -69.0487 232.432C-71.2386 232.432 -72.9996 234.194 -73 236.383C-73.0004 238.573 -71.24 240.304 -69.0649 240.318ZM439.795 213.697C441.897 211.596 445.3 211.595 447.4 213.696C449.501 215.797 449.5 219.2 447.399 221.301C445.298 223.403 441.894 223.403 439.794 221.303C438.877 220.386 438.403 219.231 438.27 218.033L440.667 218.003C440.771 218.58 441.037 219.142 441.481 219.586C442.635 220.74 444.529 220.74 445.683 219.585C446.837 218.431 446.838 216.537 445.684 215.383C444.53 214.229 442.636 214.23 441.482 215.384C441.038 215.828 440.756 216.405 440.653 216.982L438.256 217.012C438.36 215.814 438.863 214.63 439.795 213.697Z" fill="url(#paint47_linear_480_413)"/>
<path d="M197.868 101.26C199.881 101.26 201.494 99.7654 201.76 97.8418L462.173 97.795L482.743 77.2246L820.91 78.9838C821.028 80.4338 821.649 81.8541 822.773 82.9784C825.273 85.4786 829.357 85.4778 831.858 82.9768C834.359 80.4758 834.36 76.3921 831.86 73.892C829.36 71.3919 825.276 71.3926 822.775 73.8936C821.635 75.0331 821.029 76.498 820.91 77.9777L482.729 76.1149L482.448 76.041L461.759 96.7297L201.79 96.7765C201.524 94.853 199.897 93.3441 197.899 93.3592C195.709 93.3596 193.948 95.1207 193.948 97.3105C193.918 99.5004 195.678 101.261 197.868 101.26ZM823.5 74.6185C825.601 72.517 829.004 72.5164 831.105 74.6171C833.206 76.7178 833.205 80.1209 831.104 82.2223C829.002 84.3238 825.599 84.3244 823.498 82.2237C822.581 81.3065 822.108 80.1525 821.975 78.954L824.372 78.924C824.475 79.501 824.742 80.0633 825.185 80.5071C826.339 81.661 828.233 81.6606 829.388 80.5063C830.542 79.352 830.542 77.4581 829.388 76.3042C828.234 75.1503 826.341 75.1506 825.186 76.3049C824.727 76.7637 824.461 77.326 824.357 77.9031L821.96 77.9331C822.094 76.7346 822.567 75.5508 823.5 74.6185Z" fill="url(#paint48_linear_480_413)"/>
<path d="M-54.0294 143.356C-52.0171 143.356 -50.4041 141.861 -50.1374 139.938L210.275 139.891L230.846 119.321L569.012 121.08C569.13 122.53 569.751 123.95 570.876 125.074C573.376 127.575 577.459 127.574 579.96 125.073C582.461 122.572 582.462 118.488 579.962 115.988C577.462 113.488 573.378 113.489 570.877 115.99C569.738 117.129 569.131 118.594 569.012 120.074L230.816 118.226L230.535 118.152L209.846 138.841L-50.1224 138.887C-50.3884 136.964 -52.0157 135.455 -54.0132 135.47C-56.203 135.47 -57.9641 137.231 -57.9645 139.421C-57.9797 141.596 -56.2044 143.372 -54.0294 143.356ZM571.602 116.714C573.704 114.613 577.107 114.612 579.207 116.713C581.308 118.814 581.307 122.217 579.206 124.318C577.105 126.42 573.701 126.42 571.601 124.32C570.683 123.403 570.21 122.248 570.077 121.05L572.474 121.02C572.578 121.597 572.844 122.159 573.288 122.603C574.442 123.757 576.336 123.757 577.49 122.602C578.644 121.448 578.645 119.554 577.491 118.4C576.337 117.246 574.443 117.247 573.289 118.401C572.83 118.86 572.563 119.422 572.46 119.999L570.063 120.029C570.181 118.845 570.67 117.647 571.602 116.714Z" fill="url(#paint49_linear_480_413)"/>
<path d="M881.005 528.288C885.28 532.564 892.22 532.548 896.482 528.286C900.759 524.009 900.745 517.069 896.485 512.809C892.209 508.534 885.27 508.55 881.008 512.812C879.069 514.75 878.033 517.236 877.84 519.766L301.663 516.63L301.175 516.496L265.924 551.747L220.884 551.755C220.441 548.471 217.66 545.926 214.242 545.912C210.513 545.913 207.509 548.917 207.508 552.646C207.508 556.374 210.511 559.377 214.239 559.377C217.642 559.376 220.425 556.831 220.884 553.531L266.663 553.523L301.707 518.479L877.869 521.483C878.047 523.969 879.111 526.395 881.005 528.288ZM882.265 514.069C885.832 510.503 891.647 510.487 895.227 514.067C898.807 517.647 898.806 523.447 895.224 527.028C891.658 530.595 885.843 530.611 882.263 527.031C880.71 525.477 879.881 523.495 879.675 521.483L883.773 521.437C883.936 522.429 884.409 523.376 885.178 524.145C887.146 526.112 890.371 526.112 892.34 524.144C894.308 522.175 894.308 518.95 892.341 516.982C890.373 515.015 887.148 515.015 885.18 516.983C884.41 517.753 883.951 518.715 883.788 519.706L879.69 519.751C879.853 517.665 880.682 515.653 882.265 514.069Z" fill="url(#paint50_linear_480_413)"/>
<path d="M674.594 138.432L699.516 113.51C700.67 114.664 702.549 114.679 703.718 113.51C704.872 112.355 704.887 110.476 703.719 109.307C702.565 108.154 700.685 108.139 699.516 109.308C698.554 110.27 698.406 111.72 699.027 112.845L674.254 137.618L504.956 137.648C504.764 136.154 503.492 135 501.953 135C500.266 135.001 498.89 136.377 498.89 138.064C498.89 139.75 500.265 141.126 501.952 141.126C503.491 141.126 504.764 139.971 504.956 138.477L674.594 138.432Z" fill="url(#paint51_linear_480_413)"/>
<path d="M121.452 643.347C129.146 643.346 135.421 637.248 135.733 629.628L225.309 629.612L250.177 656.374C248.8 658.046 248.829 660.502 250.338 662.13C251.995 663.905 254.762 664.008 256.538 662.351C258.314 660.693 258.418 657.926 256.761 656.151C255.252 654.524 252.796 654.317 251.02 655.56L225.797 628.414L135.718 628.43C135.409 620.81 129.137 614.715 121.443 614.716C113.571 614.718 107.148 621.14 107.147 629.012C107.145 636.943 113.566 643.363 121.452 643.347ZM121.457 615.915C128.5 615.914 134.255 621.491 134.564 628.46L131.871 628.46C131.562 622.971 127.02 618.607 121.457 618.608C115.716 618.609 111.01 623.285 111.023 629.041C111.022 634.782 115.712 639.471 121.453 639.47C127.016 639.469 131.559 635.104 131.871 629.614L134.564 629.614C134.252 636.583 128.495 642.162 121.452 642.163C114.202 642.165 108.314 636.277 108.316 629.027C108.317 621.806 114.207 615.916 121.457 615.915ZM118.851 629.054C118.865 630.489 120.019 631.643 121.454 631.658C122.697 631.658 123.718 630.785 123.985 629.63L130.702 629.629C130.391 634.468 126.365 638.315 121.453 638.316C116.334 638.317 112.177 634.16 112.178 629.041C112.178 623.921 116.337 619.763 121.456 619.762C126.369 619.761 130.393 623.607 130.702 628.445L123.985 628.447C123.719 627.293 122.683 626.435 121.455 626.42C120.005 626.45 118.836 627.619 118.851 629.054Z" fill="url(#paint52_linear_480_413)"/>
<path d="M665.077 485.655L665.358 485.581L821.251 486.707C821.487 490.525 824.653 493.572 828.544 493.556C832.568 493.556 835.854 490.27 835.855 486.246C835.855 482.221 832.571 478.937 828.547 478.938C824.7 478.939 821.548 481.913 821.266 485.686L665.388 484.486L637.103 454.869L496.747 454.895C496.481 452.971 494.853 451.462 492.856 451.477C490.666 451.478 488.905 453.239 488.905 455.429C488.904 457.618 490.665 459.379 492.854 459.378C494.867 459.378 496.48 457.883 496.747 455.96L636.659 455.935L665.077 485.655ZM828.561 481.202C831.343 481.201 833.606 483.465 833.606 486.246C833.605 489.028 831.341 491.292 828.559 491.293C825.955 491.293 823.795 489.281 823.559 486.736L825.453 486.766C825.556 487.343 825.822 487.905 826.281 488.363C827.435 489.517 829.329 489.517 830.483 488.363C831.638 487.208 831.638 485.314 830.484 484.161C829.33 483.007 827.436 483.007 826.282 484.161C825.838 484.605 825.571 485.168 825.468 485.745L823.589 485.73C823.841 483.2 825.957 481.202 828.561 481.202Z" fill="url(#paint53_linear_480_413)"/>
<path d="M348.305 656.948C346.618 656.949 345.242 658.325 345.241 660.012C345.241 661.698 346.617 663.074 348.304 663.074C349.842 663.074 351.115 661.919 351.308 660.425L744.176 660.354L744.176 659.555L351.323 659.581C351.131 658.087 349.858 656.933 348.305 656.948Z" fill="url(#paint54_linear_480_413)"/>
<path d="M596.409 154.248C594.219 154.248 592.458 156.009 592.457 158.199C592.457 160.389 594.217 162.149 596.407 162.149C598.419 162.149 600.032 160.654 600.299 158.73L740.212 158.705L768.615 188.441L768.896 188.367L924.789 189.493C925.025 193.31 928.19 196.357 932.082 196.342C936.106 196.341 939.392 193.056 939.392 189.031C939.393 185.007 936.109 181.723 932.084 181.723C928.237 181.724 925.085 184.699 924.804 188.472L768.926 187.272L740.641 157.655L600.285 157.68C600.033 155.742 598.391 154.248 596.409 154.248Z" fill="url(#paint55_linear_480_413)"/>
<path d="M1394.77 391.139C1396.96 391.139 1398.72 389.378 1398.72 387.188C1398.72 384.998 1396.96 383.238 1394.77 383.238C1392.76 383.238 1391.14 384.733 1390.88 386.657L1250.96 386.682L1222.56 356.947L1222.28 357.021L1066.39 355.895C1066.15 352.077 1062.99 349.03 1059.09 349.045C1055.07 349.046 1051.78 352.331 1051.78 356.356C1051.78 360.38 1055.07 363.665 1059.09 363.664C1062.94 363.663 1066.09 360.689 1066.37 356.915L1222.25 358.116L1250.54 387.732L1390.89 387.707C1391.14 389.645 1392.78 391.14 1394.77 391.139Z" fill="url(#paint56_linear_480_413)"/>
<path d="M754.174 270.458C752.636 268.92 750.12 268.92 748.581 270.459C747.96 271.081 747.604 271.85 747.486 272.649L441.841 271.772L413.556 242.155L287.108 242.178C286.842 240.255 285.215 238.746 283.217 238.761C281.028 238.761 279.267 240.522 279.266 242.712C279.266 244.902 281.026 246.662 283.216 246.662C285.228 246.662 286.841 245.167 287.108 243.243L413.112 243.221L441.516 272.956L441.797 272.882L747.456 273.715C747.545 274.573 747.914 275.416 748.58 276.082C750.119 277.62 752.634 277.62 754.173 276.081C755.727 274.497 755.713 271.997 754.174 270.458Z" fill="url(#paint57_linear_480_413)"/>
<path d="M1034.84 293.061C1033.79 292.011 1032.07 292.011 1031.02 293.062C1030.61 293.476 1030.4 294.009 1030.31 294.541L415.19 293.72L386.905 264.103L200.798 264.136C200.532 262.213 198.905 260.704 196.907 260.719C194.718 260.719 192.957 262.48 192.956 264.67C192.956 266.86 194.716 268.621 196.906 268.62C198.918 268.62 200.531 267.125 200.798 265.202L386.49 265.168L414.893 294.903L415.175 294.829L1030.34 295.577C1030.46 296.05 1030.65 296.509 1031.02 296.879C1032.07 297.929 1033.79 297.929 1034.84 296.878C1035.89 295.828 1035.9 294.126 1034.84 293.061Z" fill="url(#paint58_linear_480_413)"/>
<defs>
<linearGradient id="paint0_linear_480_413" x1="662.859" y1="0" x2="662.859" y2="830.751" gradientUnits="userSpaceOnUse">
<stop stop-color="#F25757"/>
<stop offset="1" stop-color="#F1C357"/>
</linearGradient>
<linearGradient id="paint1_linear_480_413" x1="662.859" y1="0" x2="662.859" y2="830.751" gradientUnits="userSpaceOnUse">
<stop stop-color="#F25757"/>
<stop offset="1" stop-color="#F1C357"/>
</linearGradient>
<linearGradient id="paint2_linear_480_413" x1="662.859" y1="0" x2="662.859" y2="830.751" gradientUnits="userSpaceOnUse">
<stop stop-color="#F25757"/>
<stop offset="1" stop-color="#F1C357"/>
</linearGradient>
<linearGradient id="paint3_linear_480_413" x1="662.859" y1="0" x2="662.859" y2="830.751" gradientUnits="userSpaceOnUse">
<stop stop-color="#F25757"/>
<stop offset="1" stop-color="#F1C357"/>
</linearGradient>
<linearGradient id="paint4_linear_480_413" x1="662.859" y1="0" x2="662.859" y2="830.751" gradientUnits="userSpaceOnUse">
<stop stop-color="#F25757"/>
<stop offset="1" stop-color="#F1C357"/>
</linearGradient>
<linearGradient id="paint5_linear_480_413" x1="662.859" y1="0" x2="662.859" y2="830.751" gradientUnits="userSpaceOnUse">
<stop stop-color="#F25757"/>
<stop offset="1" stop-color="#F1C357"/>
</linearGradient>
<linearGradient id="paint6_linear_480_413" x1="662.859" y1="0" x2="662.859" y2="830.751" gradientUnits="userSpaceOnUse">
<stop stop-color="#F25757"/>
<stop offset="1" stop-color="#F1C357"/>
</linearGradient>
<linearGradient id="paint7_linear_480_413" x1="662.859" y1="0" x2="662.859" y2="830.751" gradientUnits="userSpaceOnUse">
<stop stop-color="#F25757"/>
<stop offset="1" stop-color="#F1C357"/>
</linearGradient>
<linearGradient id="paint8_linear_480_413" x1="662.859" y1="0" x2="662.859" y2="830.751" gradientUnits="userSpaceOnUse">
<stop stop-color="#F25757"/>
<stop offset="1" stop-color="#F1C357"/>
</linearGradient>
<linearGradient id="paint9_linear_480_413" x1="662.859" y1="0" x2="662.859" y2="830.751" gradientUnits="userSpaceOnUse">
<stop stop-color="#F25757"/>
<stop offset="1" stop-color="#F1C357"/>
</linearGradient>
<linearGradient id="paint10_linear_480_413" x1="662.859" y1="0" x2="662.859" y2="830.751" gradientUnits="userSpaceOnUse">
<stop stop-color="#F25757"/>
<stop offset="1" stop-color="#F1C357"/>
</linearGradient>
<linearGradient id="paint11_linear_480_413" x1="662.859" y1="0" x2="662.859" y2="830.751" gradientUnits="userSpaceOnUse">
<stop stop-color="#F25757"/>
<stop offset="1" stop-color="#F1C357"/>
</linearGradient>
<linearGradient id="paint12_linear_480_413" x1="662.859" y1="0" x2="662.859" y2="830.751" gradientUnits="userSpaceOnUse">
<stop stop-color="#F25757"/>
<stop offset="1" stop-color="#F1C357"/>
</linearGradient>
<linearGradient id="paint13_linear_480_413" x1="662.859" y1="0" x2="662.859" y2="830.751" gradientUnits="userSpaceOnUse">
<stop stop-color="#F25757"/>
<stop offset="1" stop-color="#F1C357"/>
</linearGradient>
<linearGradient id="paint14_linear_480_413" x1="662.859" y1="0" x2="662.859" y2="830.751" gradientUnits="userSpaceOnUse">
<stop stop-color="#F25757"/>
<stop offset="1" stop-color="#F1C357"/>
</linearGradient>
<linearGradient id="paint15_linear_480_413" x1="662.859" y1="0" x2="662.859" y2="830.751" gradientUnits="userSpaceOnUse">
<stop stop-color="#F25757"/>
<stop offset="1" stop-color="#F1C357"/>
</linearGradient>
<linearGradient id="paint16_linear_480_413" x1="662.859" y1="0" x2="662.859" y2="830.751" gradientUnits="userSpaceOnUse">
<stop stop-color="#F25757"/>
<stop offset="1" stop-color="#F1C357"/>
</linearGradient>
<linearGradient id="paint17_linear_480_413" x1="662.859" y1="0" x2="662.859" y2="830.751" gradientUnits="userSpaceOnUse">
<stop stop-color="#F25757"/>
<stop offset="1" stop-color="#F1C357"/>
</linearGradient>
<linearGradient id="paint18_linear_480_413" x1="662.859" y1="0" x2="662.859" y2="830.751" gradientUnits="userSpaceOnUse">
<stop stop-color="#F25757"/>
<stop offset="1" stop-color="#F1C357"/>
</linearGradient>
<linearGradient id="paint19_linear_480_413" x1="662.859" y1="0" x2="662.859" y2="830.751" gradientUnits="userSpaceOnUse">
<stop stop-color="#F25757"/>
<stop offset="1" stop-color="#F1C357"/>
</linearGradient>
<linearGradient id="paint20_linear_480_413" x1="662.859" y1="0" x2="662.859" y2="830.751" gradientUnits="userSpaceOnUse">
<stop stop-color="#F25757"/>
<stop offset="1" stop-color="#F1C357"/>
</linearGradient>
<linearGradient id="paint21_linear_480_413" x1="662.859" y1="0" x2="662.859" y2="830.751" gradientUnits="userSpaceOnUse">
<stop stop-color="#F25757"/>
<stop offset="1" stop-color="#F1C357"/>
</linearGradient>
<linearGradient id="paint22_linear_480_413" x1="662.859" y1="0" x2="662.859" y2="830.751" gradientUnits="userSpaceOnUse">
<stop stop-color="#F25757"/>
<stop offset="1" stop-color="#F1C357"/>
</linearGradient>
<linearGradient id="paint23_linear_480_413" x1="662.859" y1="0" x2="662.859" y2="830.751" gradientUnits="userSpaceOnUse">
<stop stop-color="#F25757"/>
<stop offset="1" stop-color="#F1C357"/>
</linearGradient>
<linearGradient id="paint24_linear_480_413" x1="662.859" y1="0" x2="662.859" y2="830.751" gradientUnits="userSpaceOnUse">
<stop stop-color="#F25757"/>
<stop offset="1" stop-color="#F1C357"/>
</linearGradient>
<linearGradient id="paint25_linear_480_413" x1="662.859" y1="0" x2="662.859" y2="830.751" gradientUnits="userSpaceOnUse">
<stop stop-color="#F25757"/>
<stop offset="1" stop-color="#F1C357"/>
</linearGradient>
<linearGradient id="paint26_linear_480_413" x1="662.859" y1="0" x2="662.859" y2="830.751" gradientUnits="userSpaceOnUse">
<stop stop-color="#F25757"/>
<stop offset="1" stop-color="#F1C357"/>
</linearGradient>
<linearGradient id="paint27_linear_480_413" x1="662.859" y1="0" x2="662.859" y2="830.751" gradientUnits="userSpaceOnUse">
<stop stop-color="#F25757"/>
<stop offset="1" stop-color="#F1C357"/>
</linearGradient>
<linearGradient id="paint28_linear_480_413" x1="662.859" y1="0" x2="662.859" y2="830.751" gradientUnits="userSpaceOnUse">
<stop stop-color="#F25757"/>
<stop offset="1" stop-color="#F1C357"/>
</linearGradient>
<linearGradient id="paint29_linear_480_413" x1="662.859" y1="0" x2="662.859" y2="830.751" gradientUnits="userSpaceOnUse">
<stop stop-color="#F25757"/>
<stop offset="1" stop-color="#F1C357"/>
</linearGradient>
<linearGradient id="paint30_linear_480_413" x1="662.859" y1="0" x2="662.859" y2="830.751" gradientUnits="userSpaceOnUse">
<stop stop-color="#F25757"/>
<stop offset="1" stop-color="#F1C357"/>
</linearGradient>
<linearGradient id="paint31_linear_480_413" x1="662.859" y1="0" x2="662.859" y2="830.751" gradientUnits="userSpaceOnUse">
<stop stop-color="#F25757"/>
<stop offset="1" stop-color="#F1C357"/>
</linearGradient>
<linearGradient id="paint32_linear_480_413" x1="662.859" y1="0" x2="662.859" y2="830.751" gradientUnits="userSpaceOnUse">
<stop stop-color="#F25757"/>
<stop offset="1" stop-color="#F1C357"/>
</linearGradient>
<linearGradient id="paint33_linear_480_413" x1="662.859" y1="0" x2="662.859" y2="830.751" gradientUnits="userSpaceOnUse">
<stop stop-color="#F25757"/>
<stop offset="1" stop-color="#F1C357"/>
</linearGradient>
<linearGradient id="paint34_linear_480_413" x1="662.859" y1="0" x2="662.859" y2="830.751" gradientUnits="userSpaceOnUse">
<stop stop-color="#F25757"/>
<stop offset="1" stop-color="#F1C357"/>
</linearGradient>
<linearGradient id="paint35_linear_480_413" x1="662.859" y1="0" x2="662.859" y2="830.751" gradientUnits="userSpaceOnUse">
<stop stop-color="#F25757"/>
<stop offset="1" stop-color="#F1C357"/>
</linearGradient>
<linearGradient id="paint36_linear_480_413" x1="662.859" y1="0" x2="662.859" y2="830.751" gradientUnits="userSpaceOnUse">
<stop stop-color="#F25757"/>
<stop offset="1" stop-color="#F1C357"/>
</linearGradient>
<linearGradient id="paint37_linear_480_413" x1="662.859" y1="0" x2="662.859" y2="830.751" gradientUnits="userSpaceOnUse">
<stop stop-color="#F25757"/>
<stop offset="1" stop-color="#F1C357"/>
</linearGradient>
<linearGradient id="paint38_linear_480_413" x1="662.859" y1="0" x2="662.859" y2="830.751" gradientUnits="userSpaceOnUse">
<stop stop-color="#F25757"/>
<stop offset="1" stop-color="#F1C357"/>
</linearGradient>
<linearGradient id="paint39_linear_480_413" x1="662.859" y1="0" x2="662.859" y2="830.751" gradientUnits="userSpaceOnUse">
<stop stop-color="#F25757"/>
<stop offset="1" stop-color="#F1C357"/>
</linearGradient>
<linearGradient id="paint40_linear_480_413" x1="662.859" y1="0" x2="662.859" y2="830.751" gradientUnits="userSpaceOnUse">
<stop stop-color="#F25757"/>
<stop offset="1" stop-color="#F1C357"/>
</linearGradient>
<linearGradient id="paint41_linear_480_413" x1="662.859" y1="0" x2="662.859" y2="830.751" gradientUnits="userSpaceOnUse">
<stop stop-color="#F25757"/>
<stop offset="1" stop-color="#F1C357"/>
</linearGradient>
<linearGradient id="paint42_linear_480_413" x1="662.859" y1="0" x2="662.859" y2="830.751" gradientUnits="userSpaceOnUse">
<stop stop-color="#F25757"/>
<stop offset="1" stop-color="#F1C357"/>
</linearGradient>
<linearGradient id="paint43_linear_480_413" x1="662.859" y1="0" x2="662.859" y2="830.751" gradientUnits="userSpaceOnUse">
<stop stop-color="#F25757"/>
<stop offset="1" stop-color="#F1C357"/>
</linearGradient>
<linearGradient id="paint44_linear_480_413" x1="662.859" y1="0" x2="662.859" y2="830.751" gradientUnits="userSpaceOnUse">
<stop stop-color="#F25757"/>
<stop offset="1" stop-color="#F1C357"/>
</linearGradient>
<linearGradient id="paint45_linear_480_413" x1="662.859" y1="0" x2="662.859" y2="830.751" gradientUnits="userSpaceOnUse">
<stop stop-color="#F25757"/>
<stop offset="1" stop-color="#F1C357"/>
</linearGradient>
<linearGradient id="paint46_linear_480_413" x1="662.859" y1="0" x2="662.859" y2="830.751" gradientUnits="userSpaceOnUse">
<stop stop-color="#F25757"/>
<stop offset="1" stop-color="#F1C357"/>
</linearGradient>
<linearGradient id="paint47_linear_480_413" x1="662.859" y1="0" x2="662.859" y2="830.751" gradientUnits="userSpaceOnUse">
<stop stop-color="#F25757"/>
<stop offset="1" stop-color="#F1C357"/>
</linearGradient>
<linearGradient id="paint48_linear_480_413" x1="662.859" y1="0" x2="662.859" y2="830.751" gradientUnits="userSpaceOnUse">
<stop stop-color="#F25757"/>
<stop offset="1" stop-color="#F1C357"/>
</linearGradient>
<linearGradient id="paint49_linear_480_413" x1="662.859" y1="0" x2="662.859" y2="830.751" gradientUnits="userSpaceOnUse">
<stop stop-color="#F25757"/>
<stop offset="1" stop-color="#F1C357"/>
</linearGradient>
<linearGradient id="paint50_linear_480_413" x1="662.859" y1="0" x2="662.859" y2="830.751" gradientUnits="userSpaceOnUse">
<stop stop-color="#F25757"/>
<stop offset="1" stop-color="#F1C357"/>
</linearGradient>
<linearGradient id="paint51_linear_480_413" x1="662.859" y1="0" x2="662.859" y2="830.751" gradientUnits="userSpaceOnUse">
<stop stop-color="#F25757"/>
<stop offset="1" stop-color="#F1C357"/>
</linearGradient>
<linearGradient id="paint52_linear_480_413" x1="662.859" y1="0" x2="662.859" y2="830.751" gradientUnits="userSpaceOnUse">
<stop stop-color="#F25757"/>
<stop offset="1" stop-color="#F1C357"/>
</linearGradient>
<linearGradient id="paint53_linear_480_413" x1="662.859" y1="0" x2="662.859" y2="830.751" gradientUnits="userSpaceOnUse">
<stop stop-color="#F25757"/>
<stop offset="1" stop-color="#F1C357"/>
</linearGradient>
<linearGradient id="paint54_linear_480_413" x1="662.859" y1="0" x2="662.859" y2="830.751" gradientUnits="userSpaceOnUse">
<stop stop-color="#F25757"/>
<stop offset="1" stop-color="#F1C357"/>
</linearGradient>
<linearGradient id="paint55_linear_480_413" x1="662.859" y1="0" x2="662.859" y2="830.751" gradientUnits="userSpaceOnUse">
<stop stop-color="#F25757"/>
<stop offset="1" stop-color="#F1C357"/>
</linearGradient>
<linearGradient id="paint56_linear_480_413" x1="662.859" y1="0" x2="662.859" y2="830.751" gradientUnits="userSpaceOnUse">
<stop stop-color="#F25757"/>
<stop offset="1" stop-color="#F1C357"/>
</linearGradient>
<linearGradient id="paint57_linear_480_413" x1="662.859" y1="0" x2="662.859" y2="830.751" gradientUnits="userSpaceOnUse">
<stop stop-color="#F25757"/>
<stop offset="1" stop-color="#F1C357"/>
</linearGradient>
<linearGradient id="paint58_linear_480_413" x1="662.859" y1="0" x2="662.859" y2="830.751" gradientUnits="userSpaceOnUse">
<stop stop-color="#F25757"/>
<stop offset="1" stop-color="#F1C357"/>
</linearGradient>
</defs>
</svg>
