<svg width="54" height="54" viewBox="0 0 54 54" fill="none" xmlns="http://www.w3.org/2000/svg">
<path d="M5.81387 29.1909L27.0018 8.30617L48.1898 29.1943C49.5181 30.5125 51.6755 30.5125 53.0038 29.1943C54.3321 27.8761 54.3321 25.7422 53.0038 24.4273L29.4087 1.16935C28.1311 -0.0947522 25.8756 -0.101478 24.5913 1.16935L0.996207 24.4307C-0.332069 25.7455 -0.332069 27.8828 0.996207 29.1976C2.32812 30.5091 4.48559 30.5091 5.81387 29.1909Z" fill="#F1C357"/>
<path d="M29.4089 24.7646C28.1314 23.5005 25.8758 23.4937 24.5916 24.7646L0.996451 48.0226C-0.331825 49.3407 -0.331825 51.4747 0.996451 52.7895C2.32473 54.1077 4.48219 54.1077 5.81047 52.7895L27.0018 31.9047L48.1897 52.7929C49.518 54.111 51.6755 54.111 53.0038 52.7929C54.332 51.4747 54.332 49.3407 53.0038 48.0259L29.4089 24.7646Z" fill="#F1C357"/>
</svg>
